<mxfile host="app.diagrams.net" modified="2023-11-26T22:28:04.414Z" agent="Mozilla/5.0 (Windows NT 10.0; Win64; x64) AppleWebKit/537.36 (KHTML, like Gecko) Chrome/119.0.0.0 Safari/537.36" etag="CWAOX4F25InCeJjjU1TE" version="22.1.4" type="device">
  <diagram id="lqZ8-Fg71Qs4t3Br2LcO" name="Page-1">
    <mxGraphModel dx="4689" dy="1114" grid="0" gridSize="13" guides="1" tooltips="1" connect="1" arrows="1" fold="1" page="1" pageScale="1" pageWidth="1169" pageHeight="827" background="#E6E6E6" math="0" shadow="0">
      <root>
        <mxCell id="WIyWlLk6GJQsqaUBKTNV-0" />
        <mxCell id="WIyWlLk6GJQsqaUBKTNV-1" parent="WIyWlLk6GJQsqaUBKTNV-0" />
        <mxCell id="kwfx18V8s8jriJGcK7w_-0" value="" style="group" parent="WIyWlLk6GJQsqaUBKTNV-1" vertex="1" connectable="0">
          <mxGeometry x="-1559" y="524" width="2384" height="1957" as="geometry" />
        </mxCell>
        <mxCell id="8VrIXo1lg3qWOVsLEivH-13" value="&lt;font style=&quot;font-size: 10px;&quot;&gt;Receptionist&lt;/font&gt;" style="swimlane;fontStyle=1;align=center;verticalAlign=top;childLayout=stackLayout;horizontal=1;startSize=24;horizontalStack=0;resizeParent=1;resizeParentMax=0;resizeLast=0;collapsible=1;marginBottom=0;whiteSpace=wrap;html=1;" parent="kwfx18V8s8jriJGcK7w_-0" vertex="1">
          <mxGeometry x="703.75" y="538.99" width="231.5" height="230.0030311017396" as="geometry">
            <mxRectangle x="290" y="70" width="170" height="40" as="alternateBounds" />
          </mxGeometry>
        </mxCell>
        <mxCell id="8VrIXo1lg3qWOVsLEivH-14" value="&lt;p style=&quot;line-height: 130%; font-size: 8px;&quot;&gt;&lt;font style=&quot;font-size: 8px;&quot;&gt;&lt;u&gt;-Receptionists &lt;span style=&quot;margin: 0px; padding: 0px; border: 0px; font-family: &amp;quot;gg sans&amp;quot;, &amp;quot;Noto Sans&amp;quot;, &amp;quot;Helvetica Neue&amp;quot;, Helvetica, Arial, sans-serif; vertical-align: baseline; outline: 0px; background-color: rgba(2, 2, 2, 0.06);&quot;&gt;: ArrayList&lt;/span&gt;&lt;span style=&quot;margin: 0px; padding: 0px; border: 0px; font-family: &amp;quot;gg sans&amp;quot;, &amp;quot;Noto Sans&amp;quot;, &amp;quot;Helvetica Neue&amp;quot;, Helvetica, Arial, sans-serif; vertical-align: baseline; outline: 0px; background-color: rgba(2, 2, 2, 0.06);&quot;&gt;&amp;lt;Receptionist&lt;/span&gt;&lt;span style=&quot;margin: 0px; padding: 0px; border: 0px; font-family: &amp;quot;gg sans&amp;quot;, &amp;quot;Noto Sans&amp;quot;, &amp;quot;Helvetica Neue&amp;quot;, Helvetica, Arial, sans-serif; vertical-align: baseline; outline: 0px; background-color: rgba(2, 2, 2, 0.06);&quot;&gt;&amp;gt;&lt;/span&gt;&lt;/u&gt;&lt;span style=&quot;margin: 0px; padding: 0px; border: 0px; font-family: &amp;quot;gg sans&amp;quot;, &amp;quot;Noto Sans&amp;quot;, &amp;quot;Helvetica Neue&amp;quot;, Helvetica, Arial, sans-serif; vertical-align: baseline; outline: 0px; background-color: rgba(2, 2, 2, 0.06);&quot;&gt;&lt;br&gt;&lt;/span&gt;&lt;span style=&quot;margin: 0px; padding: 0px; border: 0px; font-family: &amp;quot;gg sans&amp;quot;, &amp;quot;Noto Sans&amp;quot;, &amp;quot;Helvetica Neue&amp;quot;, Helvetica, Arial, sans-serif; vertical-align: baseline; outline: 0px; background-color: rgba(2, 2, 2, 0.06);&quot;&gt;-&lt;/span&gt;&lt;span style=&quot;margin: 0px; padding: 0px; border: 0px; font-family: &amp;quot;gg sans&amp;quot;, &amp;quot;Noto Sans&amp;quot;, &amp;quot;Helvetica Neue&amp;quot;, Helvetica, Arial, sans-serif; vertical-align: baseline; outline: 0px; background-color: rgba(2, 2, 2, 0.06);&quot;&gt;/Revenue &lt;/span&gt;&lt;span style=&quot;margin: 0px; padding: 0px; border: 0px; font-family: &amp;quot;gg sans&amp;quot;, &amp;quot;Noto Sans&amp;quot;, &amp;quot;Helvetica Neue&amp;quot;, Helvetica, Arial, sans-serif; vertical-align: baseline; outline: 0px; background-color: rgba(2, 2, 2, 0.06);&quot;&gt;: double&lt;br&gt;&amp;nbsp;&lt;/span&gt;&lt;span style=&quot;margin: 0px; padding: 0px; border: 0px; font-family: &amp;quot;gg sans&amp;quot;, &amp;quot;Noto Sans&amp;quot;, &amp;quot;Helvetica Neue&amp;quot;, Helvetica, Arial, sans-serif; vertical-align: baseline; outline: 0px; background-color: rgba(2, 2, 2, 0.06);&quot;&gt;-ReservationCount &lt;/span&gt;&lt;span style=&quot;margin: 0px; padding: 0px; border: 0px; font-family: &amp;quot;gg sans&amp;quot;, &amp;quot;Noto Sans&amp;quot;, &amp;quot;Helvetica Neue&amp;quot;, Helvetica, Arial, sans-serif; vertical-align: baseline; outline: 0px; background-color: rgba(2, 2, 2, 0.06);&quot;&gt;: int&lt;/span&gt;&lt;br&gt;&lt;/font&gt;&lt;/p&gt;" style="text;strokeColor=none;fillColor=none;align=left;verticalAlign=top;spacingLeft=4;spacingRight=4;overflow=hidden;rotatable=0;points=[[0,0.5],[1,0.5]];portConstraint=eastwest;whiteSpace=wrap;html=1;" parent="8VrIXo1lg3qWOVsLEivH-13" vertex="1">
          <mxGeometry y="24" width="231.5" height="45" as="geometry" />
        </mxCell>
        <mxCell id="8VrIXo1lg3qWOVsLEivH-15" value="" style="line;strokeWidth=1;fillColor=none;align=left;verticalAlign=middle;spacingTop=-1;spacingLeft=3;spacingRight=3;rotatable=0;labelPosition=right;points=[];portConstraint=eastwest;strokeColor=inherit;" parent="8VrIXo1lg3qWOVsLEivH-13" vertex="1">
          <mxGeometry y="69" width="231.5" height="8.253031101739587" as="geometry" />
        </mxCell>
        <mxCell id="8VrIXo1lg3qWOVsLEivH-16" value="&lt;p style=&quot;line-height: 140%; font-size: 8px;&quot;&gt;&lt;font style=&quot;font-size: 8px;&quot;&gt;+Receptionist&lt;span style=&quot;margin: 0px; padding: 0px; border: 0px; font-family: &amp;quot;gg sans&amp;quot;, &amp;quot;Noto Sans&amp;quot;, &amp;quot;Helvetica Neue&amp;quot;, Helvetica, Arial, sans-serif; vertical-align: baseline; outline: 0px; background-color: rgba(2, 2, 2, 0.06);&quot;&gt;(name &lt;/span&gt;&lt;span style=&quot;margin: 0px; padding: 0px; border: 0px; font-family: &amp;quot;gg sans&amp;quot;, &amp;quot;Noto Sans&amp;quot;, &amp;quot;Helvetica Neue&amp;quot;, Helvetica, Arial, sans-serif; vertical-align: baseline; outline: 0px; background-color: rgba(2, 2, 2, 0.06);&quot;&gt;: String &lt;/span&gt;&lt;span style=&quot;margin: 0px; padding: 0px; border: 0px; font-family: &amp;quot;gg sans&amp;quot;, &amp;quot;Noto Sans&amp;quot;, &amp;quot;Helvetica Neue&amp;quot;, Helvetica, Arial, sans-serif; vertical-align: baseline; outline: 0px; background-color: rgba(2, 2, 2, 0.06);&quot;&gt;, address &lt;/span&gt;&lt;span style=&quot;margin: 0px; padding: 0px; border: 0px; font-family: &amp;quot;gg sans&amp;quot;, &amp;quot;Noto Sans&amp;quot;, &amp;quot;Helvetica Neue&amp;quot;, Helvetica, Arial, sans-serif; vertical-align: baseline; outline: 0px; background-color: rgba(2, 2, 2, 0.06);&quot;&gt;: String &lt;/span&gt;&lt;span style=&quot;margin: 0px; padding: 0px; border: 0px; font-family: &amp;quot;gg sans&amp;quot;, &amp;quot;Noto Sans&amp;quot;, &amp;quot;Helvetica Neue&amp;quot;, Helvetica, Arial, sans-serif; vertical-align: baseline; outline: 0px; background-color: rgba(2, 2, 2, 0.06);&quot;&gt;, dateOfBirth &lt;/span&gt;&lt;span style=&quot;margin: 0px; padding: 0px; border: 0px; font-family: &amp;quot;gg sans&amp;quot;, &amp;quot;Noto Sans&amp;quot;, &amp;quot;Helvetica Neue&amp;quot;, Helvetica, Arial, sans-serif; vertical-align: baseline; outline: 0px; background-color: rgba(2, 2, 2, 0.06);&quot;&gt;: String &lt;/span&gt;&lt;span style=&quot;margin: 0px; padding: 0px; border: 0px; font-family: &amp;quot;gg sans&amp;quot;, &amp;quot;Noto Sans&amp;quot;, &amp;quot;Helvetica Neue&amp;quot;, Helvetica, Arial, sans-serif; vertical-align: baseline; outline: 0px; background-color: rgba(2, 2, 2, 0.06);&quot;&gt;, Phone &lt;/span&gt;&lt;span style=&quot;margin: 0px; padding: 0px; border: 0px; font-family: &amp;quot;gg sans&amp;quot;, &amp;quot;Noto Sans&amp;quot;, &amp;quot;Helvetica Neue&amp;quot;, Helvetica, Arial, sans-serif; vertical-align: baseline; outline: 0px; background-color: rgba(2, 2, 2, 0.06);&quot;&gt;: String &lt;/span&gt;&lt;span style=&quot;margin: 0px; padding: 0px; border: 0px; font-family: &amp;quot;gg sans&amp;quot;, &amp;quot;Noto Sans&amp;quot;, &amp;quot;Helvetica Neue&amp;quot;, Helvetica, Arial, sans-serif; vertical-align: baseline; outline: 0px; background-color: rgba(2, 2, 2, 0.06);&quot;&gt;, Email &lt;/span&gt;&lt;span style=&quot;margin: 0px; padding: 0px; border: 0px; font-family: &amp;quot;gg sans&amp;quot;, &amp;quot;Noto Sans&amp;quot;, &amp;quot;Helvetica Neue&amp;quot;, Helvetica, Arial, sans-serif; vertical-align: baseline; outline: 0px; background-color: rgba(2, 2, 2, 0.06);&quot;&gt;: String &lt;/span&gt;&lt;span style=&quot;margin: 0px; padding: 0px; border: 0px; font-family: &amp;quot;gg sans&amp;quot;, &amp;quot;Noto Sans&amp;quot;, &amp;quot;Helvetica Neue&amp;quot;, Helvetica, Arial, sans-serif; vertical-align: baseline; outline: 0px; background-color: rgba(2, 2, 2, 0.06);&quot;&gt;, UserName &lt;/span&gt;&lt;span style=&quot;margin: 0px; padding: 0px; border: 0px; font-family: &amp;quot;gg sans&amp;quot;, &amp;quot;Noto Sans&amp;quot;, &amp;quot;Helvetica Neue&amp;quot;, Helvetica, Arial, sans-serif; vertical-align: baseline; outline: 0px; background-color: rgba(2, 2, 2, 0.06);&quot;&gt;: String &lt;/span&gt;&lt;span style=&quot;margin: 0px; padding: 0px; border: 0px; font-family: &amp;quot;gg sans&amp;quot;, &amp;quot;Noto Sans&amp;quot;, &amp;quot;Helvetica Neue&amp;quot;, Helvetica, Arial, sans-serif; vertical-align: baseline; outline: 0px; background-color: rgba(2, 2, 2, 0.06);&quot;&gt;, Password &lt;/span&gt;&lt;span style=&quot;margin: 0px; padding: 0px; border: 0px; font-family: &amp;quot;gg sans&amp;quot;, &amp;quot;Noto Sans&amp;quot;, &amp;quot;Helvetica Neue&amp;quot;, Helvetica, Arial, sans-serif; vertical-align: baseline; outline: 0px; background-color: rgba(2, 2, 2, 0.06);&quot;&gt;: String&lt;/span&gt;&lt;span style=&quot;margin: 0px; padding: 0px; border: 0px; font-family: &amp;quot;gg sans&amp;quot;, &amp;quot;Noto Sans&amp;quot;, &amp;quot;Helvetica Neue&amp;quot;, Helvetica, Arial, sans-serif; vertical-align: baseline; outline: 0px; background-color: rgba(2, 2, 2, 0.06);&quot;&gt;)&lt;br&gt;&lt;/span&gt;&lt;span style=&quot;margin: 0px; padding: 0px; border: 0px; font-family: &amp;quot;gg sans&amp;quot;, &amp;quot;Noto Sans&amp;quot;, &amp;quot;Helvetica Neue&amp;quot;, Helvetica, Arial, sans-serif; vertical-align: baseline; outline: 0px; background-color: rgba(2, 2, 2, 0.06);&quot;&gt;+createReservation&lt;/span&gt;&lt;span style=&quot;margin: 0px; padding: 0px; border: 0px; font-family: &amp;quot;gg sans&amp;quot;, &amp;quot;Noto Sans&amp;quot;, &amp;quot;Helvetica Neue&amp;quot;, Helvetica, Arial, sans-serif; vertical-align: baseline; outline: 0px; background-color: rgba(2, 2, 2, 0.06);&quot;&gt;(guestId &lt;/span&gt;&lt;span style=&quot;margin: 0px; padding: 0px; border: 0px; font-family: &amp;quot;gg sans&amp;quot;, &amp;quot;Noto Sans&amp;quot;, &amp;quot;Helvetica Neue&amp;quot;, Helvetica, Arial, sans-serif; vertical-align: baseline; outline: 0px; background-color: rgba(2, 2, 2, 0.06);&quot;&gt;: int &lt;/span&gt;&lt;span style=&quot;margin: 0px; padding: 0px; border: 0px; font-family: &amp;quot;gg sans&amp;quot;, &amp;quot;Noto Sans&amp;quot;, &amp;quot;Helvetica Neue&amp;quot;, Helvetica, Arial, sans-serif; vertical-align: baseline; outline: 0px; background-color: rgba(2, 2, 2, 0.06);&quot;&gt;, tableNum &lt;/span&gt;&lt;span style=&quot;margin: 0px; padding: 0px; border: 0px; font-family: &amp;quot;gg sans&amp;quot;, &amp;quot;Noto Sans&amp;quot;, &amp;quot;Helvetica Neue&amp;quot;, Helvetica, Arial, sans-serif; vertical-align: baseline; outline: 0px; background-color: rgba(2, 2, 2, 0.06);&quot;&gt;: int &lt;/span&gt;&lt;span style=&quot;margin: 0px; padding: 0px; border: 0px; font-family: &amp;quot;gg sans&amp;quot;, &amp;quot;Noto Sans&amp;quot;, &amp;quot;Helvetica Neue&amp;quot;, Helvetica, Arial, sans-serif; vertical-align: baseline; outline: 0px; background-color: rgba(2, 2, 2, 0.06);&quot;&gt;, numOfGuests &lt;/span&gt;&lt;span style=&quot;margin: 0px; padding: 0px; border: 0px; font-family: &amp;quot;gg sans&amp;quot;, &amp;quot;Noto Sans&amp;quot;, &amp;quot;Helvetica Neue&amp;quot;, Helvetica, Arial, sans-serif; vertical-align: baseline; outline: 0px; background-color: rgba(2, 2, 2, 0.06);&quot;&gt;: int &lt;/span&gt;&lt;span style=&quot;margin: 0px; padding: 0px; border: 0px; font-family: &amp;quot;gg sans&amp;quot;, &amp;quot;Noto Sans&amp;quot;, &amp;quot;Helvetica Neue&amp;quot;, Helvetica, Arial, sans-serif; vertical-align: baseline; outline: 0px; background-color: rgba(2, 2, 2, 0.06);&quot;&gt;, date &lt;/span&gt;&lt;span style=&quot;margin: 0px; padding: 0px; border: 0px; font-family: &amp;quot;gg sans&amp;quot;, &amp;quot;Noto Sans&amp;quot;, &amp;quot;Helvetica Neue&amp;quot;, Helvetica, Arial, sans-serif; vertical-align: baseline; outline: 0px; background-color: rgba(2, 2, 2, 0.06);&quot;&gt;: String &lt;/span&gt;&lt;span style=&quot;margin: 0px; padding: 0px; border: 0px; font-family: &amp;quot;gg sans&amp;quot;, &amp;quot;Noto Sans&amp;quot;, &amp;quot;Helvetica Neue&amp;quot;, Helvetica, Arial, sans-serif; vertical-align: baseline; outline: 0px; background-color: rgba(2, 2, 2, 0.06);&quot;&gt;, start &lt;/span&gt;&lt;span style=&quot;margin: 0px; padding: 0px; border: 0px; font-family: &amp;quot;gg sans&amp;quot;, &amp;quot;Noto Sans&amp;quot;, &amp;quot;Helvetica Neue&amp;quot;, Helvetica, Arial, sans-serif; vertical-align: baseline; outline: 0px; background-color: rgba(2, 2, 2, 0.06);&quot;&gt;: String &lt;/span&gt;&lt;span style=&quot;margin: 0px; padding: 0px; border: 0px; font-family: &amp;quot;gg sans&amp;quot;, &amp;quot;Noto Sans&amp;quot;, &amp;quot;Helvetica Neue&amp;quot;, Helvetica, Arial, sans-serif; vertical-align: baseline; outline: 0px; background-color: rgba(2, 2, 2, 0.06);&quot;&gt;, end &lt;/span&gt;&lt;span style=&quot;margin: 0px; padding: 0px; border: 0px; font-family: &amp;quot;gg sans&amp;quot;, &amp;quot;Noto Sans&amp;quot;, &amp;quot;Helvetica Neue&amp;quot;, Helvetica, Arial, sans-serif; vertical-align: baseline; outline: 0px; background-color: rgba(2, 2, 2, 0.06);&quot;&gt;: String &lt;/span&gt;&lt;span style=&quot;margin: 0px; padding: 0px; border: 0px; font-family: &amp;quot;gg sans&amp;quot;, &amp;quot;Noto Sans&amp;quot;, &amp;quot;Helvetica Neue&amp;quot;, Helvetica, Arial, sans-serif; vertical-align: baseline; outline: 0px; background-color: rgba(2, 2, 2, 0.06);&quot;&gt;, order &lt;/span&gt;&lt;span style=&quot;margin: 0px; padding: 0px; border: 0px; font-family: &amp;quot;gg sans&amp;quot;, &amp;quot;Noto Sans&amp;quot;, &amp;quot;Helvetica Neue&amp;quot;, Helvetica, Arial, sans-serif; vertical-align: baseline; outline: 0px; background-color: rgba(2, 2, 2, 0.06);&quot;&gt;: ArrayList&lt;/span&gt;&lt;span style=&quot;margin: 0px; padding: 0px; border: 0px; font-family: &amp;quot;gg sans&amp;quot;, &amp;quot;Noto Sans&amp;quot;, &amp;quot;Helvetica Neue&amp;quot;, Helvetica, Arial, sans-serif; vertical-align: baseline; outline: 0px; background-color: rgba(2, 2, 2, 0.06);&quot;&gt;&amp;lt;Meal&lt;/span&gt;&lt;span style=&quot;margin: 0px; padding: 0px; border: 0px; font-family: &amp;quot;gg sans&amp;quot;, &amp;quot;Noto Sans&amp;quot;, &amp;quot;Helvetica Neue&amp;quot;, Helvetica, Arial, sans-serif; vertical-align: baseline; outline: 0px; background-color: rgba(2, 2, 2, 0.06);&quot;&gt;&amp;gt;&lt;/span&gt;&lt;span style=&quot;margin: 0px; padding: 0px; border: 0px; font-family: &amp;quot;gg sans&amp;quot;, &amp;quot;Noto Sans&amp;quot;, &amp;quot;Helvetica Neue&amp;quot;, Helvetica, Arial, sans-serif; vertical-align: baseline; outline: 0px; background-color: rgba(2, 2, 2, 0.06);&quot;&gt;)&lt;br&gt;&lt;/span&gt;&lt;span style=&quot;margin: 0px; padding: 0px; border: 0px; font-family: &amp;quot;gg sans&amp;quot;, &amp;quot;Noto Sans&amp;quot;, &amp;quot;Helvetica Neue&amp;quot;, Helvetica, Arial, sans-serif; vertical-align: baseline; outline: 0px; background-color: rgba(2, 2, 2, 0.06);&quot;&gt;+cancelReservation&lt;/span&gt;&lt;span style=&quot;margin: 0px; padding: 0px; border: 0px; font-family: &amp;quot;gg sans&amp;quot;, &amp;quot;Noto Sans&amp;quot;, &amp;quot;Helvetica Neue&amp;quot;, Helvetica, Arial, sans-serif; vertical-align: baseline; outline: 0px; background-color: rgba(2, 2, 2, 0.06);&quot;&gt;(resId &lt;/span&gt;&lt;span style=&quot;margin: 0px; padding: 0px; border: 0px; font-family: &amp;quot;gg sans&amp;quot;, &amp;quot;Noto Sans&amp;quot;, &amp;quot;Helvetica Neue&amp;quot;, Helvetica, Arial, sans-serif; vertical-align: baseline; outline: 0px; background-color: rgba(2, 2, 2, 0.06);&quot;&gt;: int&lt;/span&gt;&lt;span style=&quot;margin: 0px; padding: 0px; border: 0px; font-family: &amp;quot;gg sans&amp;quot;, &amp;quot;Noto Sans&amp;quot;, &amp;quot;Helvetica Neue&amp;quot;, Helvetica, Arial, sans-serif; vertical-align: baseline; outline: 0px; background-color: rgba(2, 2, 2, 0.06);&quot;&gt;)&lt;br&gt;&lt;/span&gt;&lt;u&gt;&lt;span style=&quot;margin: 0px; padding: 0px; border: 0px; font-family: &amp;quot;gg sans&amp;quot;, &amp;quot;Noto Sans&amp;quot;, &amp;quot;Helvetica Neue&amp;quot;, Helvetica, Arial, sans-serif; vertical-align: baseline; outline: 0px; background-color: rgba(2, 2, 2, 0.06);&quot;&gt;+search&lt;/span&gt;&lt;span style=&quot;margin: 0px; padding: 0px; border: 0px; font-family: &amp;quot;gg sans&amp;quot;, &amp;quot;Noto Sans&amp;quot;, &amp;quot;Helvetica Neue&amp;quot;, Helvetica, Arial, sans-serif; vertical-align: baseline; outline: 0px; background-color: rgba(2, 2, 2, 0.06);&quot;&gt;(id &lt;/span&gt;&lt;span style=&quot;margin: 0px; padding: 0px; border: 0px; font-family: &amp;quot;gg sans&amp;quot;, &amp;quot;Noto Sans&amp;quot;, &amp;quot;Helvetica Neue&amp;quot;, Helvetica, Arial, sans-serif; vertical-align: baseline; outline: 0px; background-color: rgba(2, 2, 2, 0.06);&quot;&gt;: int&lt;/span&gt;&lt;span style=&quot;margin: 0px; padding: 0px; border: 0px; font-family: &amp;quot;gg sans&amp;quot;, &amp;quot;Noto Sans&amp;quot;, &amp;quot;Helvetica Neue&amp;quot;, Helvetica, Arial, sans-serif; vertical-align: baseline; outline: 0px; background-color: rgba(2, 2, 2, 0.06);&quot;&gt;) &lt;/span&gt;&lt;span style=&quot;margin: 0px; padding: 0px; border: 0px; font-family: &amp;quot;gg sans&amp;quot;, &amp;quot;Noto Sans&amp;quot;, &amp;quot;Helvetica Neue&amp;quot;, Helvetica, Arial, sans-serif; vertical-align: baseline; outline: 0px; background-color: rgba(2, 2, 2, 0.06);&quot;&gt;: Receptionist&lt;/span&gt;&lt;/u&gt;&lt;span style=&quot;margin: 0px; padding: 0px; border: 0px; font-family: &amp;quot;gg sans&amp;quot;, &amp;quot;Noto Sans&amp;quot;, &amp;quot;Helvetica Neue&amp;quot;, Helvetica, Arial, sans-serif; vertical-align: baseline; outline: 0px; background-color: rgba(2, 2, 2, 0.06);&quot;&gt;&lt;br&gt;&lt;/span&gt;&lt;u&gt;&lt;span style=&quot;margin: 0px; padding: 0px; border: 0px; font-family: &amp;quot;gg sans&amp;quot;, &amp;quot;Noto Sans&amp;quot;, &amp;quot;Helvetica Neue&amp;quot;, Helvetica, Arial, sans-serif; vertical-align: baseline; outline: 0px; background-color: rgba(2, 2, 2, 0.06);&quot;&gt;+getRecord&lt;/span&gt;&lt;span style=&quot;margin: 0px; padding: 0px; border: 0px; font-family: &amp;quot;gg sans&amp;quot;, &amp;quot;Noto Sans&amp;quot;, &amp;quot;Helvetica Neue&amp;quot;, Helvetica, Arial, sans-serif; vertical-align: baseline; outline: 0px; background-color: rgba(2, 2, 2, 0.06);&quot;&gt;(&lt;/span&gt;&lt;span style=&quot;margin: 0px; padding: 0px; border: 0px; font-family: &amp;quot;gg sans&amp;quot;, &amp;quot;Noto Sans&amp;quot;, &amp;quot;Helvetica Neue&amp;quot;, Helvetica, Arial, sans-serif; vertical-align: baseline; outline: 0px; background-color: rgba(2, 2, 2, 0.06);&quot;&gt;) &lt;/span&gt;&lt;span style=&quot;margin: 0px; padding: 0px; border: 0px; font-family: &amp;quot;gg sans&amp;quot;, &amp;quot;Noto Sans&amp;quot;, &amp;quot;Helvetica Neue&amp;quot;, Helvetica, Arial, sans-serif; vertical-align: baseline; outline: 0px; background-color: rgba(2, 2, 2, 0.06);&quot;&gt;: void&lt;/span&gt;&lt;/u&gt;&lt;span style=&quot;margin: 0px; padding: 0px; border: 0px; font-family: &amp;quot;gg sans&amp;quot;, &amp;quot;Noto Sans&amp;quot;, &amp;quot;Helvetica Neue&amp;quot;, Helvetica, Arial, sans-serif; vertical-align: baseline; outline: 0px; background-color: rgba(2, 2, 2, 0.06);&quot;&gt;&lt;br&gt;&lt;/span&gt;&lt;u&gt;&lt;span style=&quot;margin: 0px; padding: 0px; border: 0px; font-family: &amp;quot;gg sans&amp;quot;, &amp;quot;Noto Sans&amp;quot;, &amp;quot;Helvetica Neue&amp;quot;, Helvetica, Arial, sans-serif; vertical-align: baseline; outline: 0px; background-color: rgba(2, 2, 2, 0.06);&quot;&gt;+saveRecord&lt;/span&gt;&lt;span style=&quot;margin: 0px; padding: 0px; border: 0px; font-family: &amp;quot;gg sans&amp;quot;, &amp;quot;Noto Sans&amp;quot;, &amp;quot;Helvetica Neue&amp;quot;, Helvetica, Arial, sans-serif; vertical-align: baseline; outline: 0px; background-color: rgba(2, 2, 2, 0.06);&quot;&gt;(&lt;/span&gt;&lt;span style=&quot;margin: 0px; padding: 0px; border: 0px; font-family: &amp;quot;gg sans&amp;quot;, &amp;quot;Noto Sans&amp;quot;, &amp;quot;Helvetica Neue&amp;quot;, Helvetica, Arial, sans-serif; vertical-align: baseline; outline: 0px; background-color: rgba(2, 2, 2, 0.06);&quot;&gt;) &lt;/span&gt;&lt;span style=&quot;margin: 0px; padding: 0px; border: 0px; font-family: &amp;quot;gg sans&amp;quot;, &amp;quot;Noto Sans&amp;quot;, &amp;quot;Helvetica Neue&amp;quot;, Helvetica, Arial, sans-serif; vertical-align: baseline; outline: 0px; background-color: rgba(2, 2, 2, 0.06);&quot;&gt;: void&lt;/span&gt;&lt;/u&gt;&lt;span style=&quot;margin: 0px; padding: 0px; border: 0px; font-family: &amp;quot;gg sans&amp;quot;, &amp;quot;Noto Sans&amp;quot;, &amp;quot;Helvetica Neue&amp;quot;, Helvetica, Arial, sans-serif; vertical-align: baseline; outline: 0px; background-color: rgba(2, 2, 2, 0.06);&quot;&gt;&lt;br&gt;&lt;/span&gt;&lt;span style=&quot;margin: 0px; padding: 0px; border: 0px; font-family: &amp;quot;gg sans&amp;quot;, &amp;quot;Noto Sans&amp;quot;, &amp;quot;Helvetica Neue&amp;quot;, Helvetica, Arial, sans-serif; vertical-align: baseline; outline: 0px; background-color: rgba(2, 2, 2, 0.06);&quot;&gt;+toString&lt;/span&gt;&lt;span style=&quot;margin: 0px; padding: 0px; border: 0px; font-family: &amp;quot;gg sans&amp;quot;, &amp;quot;Noto Sans&amp;quot;, &amp;quot;Helvetica Neue&amp;quot;, Helvetica, Arial, sans-serif; vertical-align: baseline; outline: 0px; background-color: rgba(2, 2, 2, 0.06);&quot;&gt;(&lt;/span&gt;&lt;span style=&quot;margin: 0px; padding: 0px; border: 0px; font-family: &amp;quot;gg sans&amp;quot;, &amp;quot;Noto Sans&amp;quot;, &amp;quot;Helvetica Neue&amp;quot;, Helvetica, Arial, sans-serif; vertical-align: baseline; outline: 0px; background-color: rgba(2, 2, 2, 0.06);&quot;&gt;) &lt;/span&gt;&lt;span style=&quot;margin: 0px; padding: 0px; border: 0px; font-family: &amp;quot;gg sans&amp;quot;, &amp;quot;Noto Sans&amp;quot;, &amp;quot;Helvetica Neue&amp;quot;, Helvetica, Arial, sans-serif; vertical-align: baseline; outline: 0px; background-color: rgba(2, 2, 2, 0.06);&quot;&gt;: String&lt;br&gt;&lt;/span&gt;&lt;span style=&quot;margin: 0px; padding: 0px; border: 0px; font-family: &amp;quot;gg sans&amp;quot;, &amp;quot;Noto Sans&amp;quot;, &amp;quot;Helvetica Neue&amp;quot;, Helvetica, Arial, sans-serif; vertical-align: baseline; outline: 0px; background-color: rgba(2, 2, 2, 0.06);&quot;&gt;+compareTo&lt;/span&gt;&lt;span style=&quot;margin: 0px; padding: 0px; border: 0px; font-family: &amp;quot;gg sans&amp;quot;, &amp;quot;Noto Sans&amp;quot;, &amp;quot;Helvetica Neue&amp;quot;, Helvetica, Arial, sans-serif; vertical-align: baseline; outline: 0px; background-color: rgba(2, 2, 2, 0.06);&quot;&gt;(right &lt;/span&gt;&lt;span style=&quot;margin: 0px; padding: 0px; border: 0px; font-family: &amp;quot;gg sans&amp;quot;, &amp;quot;Noto Sans&amp;quot;, &amp;quot;Helvetica Neue&amp;quot;, Helvetica, Arial, sans-serif; vertical-align: baseline; outline: 0px; background-color: rgba(2, 2, 2, 0.06);&quot;&gt;: Receptionist&lt;/span&gt;&lt;span style=&quot;margin: 0px; padding: 0px; border: 0px; font-family: &amp;quot;gg sans&amp;quot;, &amp;quot;Noto Sans&amp;quot;, &amp;quot;Helvetica Neue&amp;quot;, Helvetica, Arial, sans-serif; vertical-align: baseline; outline: 0px; background-color: rgba(2, 2, 2, 0.06);&quot;&gt;) &lt;/span&gt;&lt;span style=&quot;margin: 0px; padding: 0px; border: 0px; font-family: &amp;quot;gg sans&amp;quot;, &amp;quot;Noto Sans&amp;quot;, &amp;quot;Helvetica Neue&amp;quot;, Helvetica, Arial, sans-serif; vertical-align: baseline; outline: 0px; background-color: rgba(2, 2, 2, 0.06);&quot;&gt;: int&lt;/span&gt;&lt;/font&gt;&lt;span style=&quot;font-size: 14px;&quot;&gt;&lt;br&gt;&lt;/span&gt;&lt;/p&gt;" style="text;strokeColor=none;fillColor=none;align=left;verticalAlign=top;spacingLeft=4;spacingRight=4;overflow=hidden;rotatable=0;points=[[0,0.5],[1,0.5]];portConstraint=eastwest;whiteSpace=wrap;html=1;" parent="8VrIXo1lg3qWOVsLEivH-13" vertex="1">
          <mxGeometry y="77.2530311017396" width="231.5" height="152.75" as="geometry" />
        </mxCell>
        <mxCell id="GKtXlJeU_APXLLwpqhoX-28" style="edgeStyle=orthogonalEdgeStyle;rounded=0;orthogonalLoop=1;jettySize=auto;html=1;entryX=0;entryY=0.5;entryDx=0;entryDy=0;" edge="1" parent="kwfx18V8s8jriJGcK7w_-0" source="8VrIXo1lg3qWOVsLEivH-17" target="8VrIXo1lg3qWOVsLEivH-30">
          <mxGeometry relative="1" as="geometry">
            <mxPoint x="642" y="376" as="targetPoint" />
            <Array as="points">
              <mxPoint x="545" y="393" />
            </Array>
          </mxGeometry>
        </mxCell>
        <mxCell id="8VrIXo1lg3qWOVsLEivH-17" value="&lt;font style=&quot;font-size: 9px;&quot;&gt;Guest&lt;/font&gt;" style="swimlane;fontStyle=1;align=center;verticalAlign=top;childLayout=stackLayout;horizontal=1;startSize=20;horizontalStack=0;resizeParent=1;resizeParentMax=0;resizeLast=0;collapsible=1;marginBottom=0;whiteSpace=wrap;html=1;" parent="kwfx18V8s8jriJGcK7w_-0" vertex="1">
          <mxGeometry x="449" y="582" width="191.5" height="171" as="geometry">
            <mxRectangle x="160" y="70" width="100" height="40" as="alternateBounds" />
          </mxGeometry>
        </mxCell>
        <mxCell id="8VrIXo1lg3qWOVsLEivH-44" value="&lt;p style=&quot;line-height: 110%; font-size: 8px;&quot;&gt;&lt;font style=&quot;font-size: 8px;&quot;&gt;&lt;font style=&quot;font-size: 8px;&quot;&gt;&lt;u style=&quot;&quot;&gt;- Guests:ArrayList&amp;lt;Guest&amp;gt;&lt;/u&gt;&lt;br&gt;&lt;/font&gt;&lt;/font&gt;&lt;font style=&quot;font-size: 8px;&quot;&gt;&lt;font style=&quot;font-size: 8px;&quot;&gt;- preferedCategory : Category&lt;br style=&quot;border-color: var(--border-color);&quot;&gt;-numOfReservations:int&lt;/font&gt;&lt;br style=&quot;border-color: var(--border-color);&quot;&gt;&lt;/font&gt;&lt;/p&gt;" style="text;html=1;align=left;verticalAlign=middle;resizable=0;points=[];autosize=1;strokeColor=none;fillColor=none;" parent="8VrIXo1lg3qWOVsLEivH-17" vertex="1">
          <mxGeometry y="20" width="191.5" height="54" as="geometry" />
        </mxCell>
        <mxCell id="8VrIXo1lg3qWOVsLEivH-19" value="" style="line;strokeWidth=1;fillColor=none;align=left;verticalAlign=middle;spacingTop=-1;spacingLeft=3;spacingRight=3;rotatable=0;labelPosition=right;points=[];portConstraint=eastwest;strokeColor=inherit;" parent="8VrIXo1lg3qWOVsLEivH-17" vertex="1">
          <mxGeometry y="74" width="191.5" height="15.37" as="geometry" />
        </mxCell>
        <mxCell id="8VrIXo1lg3qWOVsLEivH-20" value="&lt;p style=&quot;line-height: 110%; font-size: 8px;&quot;&gt;&lt;font style=&quot;font-size: 8px;&quot;&gt;&lt;font style=&quot;font-size: 8px;&quot;&gt;+Guest(Name : String , Address : String ,DateOfBirth : String ,Phone : int , Email : String)&lt;br&gt;+viewReservation() : void&lt;br&gt;&lt;/font&gt;&lt;font style=&quot;font-size: 8px;&quot;&gt;+rateBooking(currentReservation : Reservation) : void&lt;br&gt;&lt;u&gt;+saveRecords():void&lt;br&gt;&lt;/u&gt;&lt;/font&gt;&lt;/font&gt;&lt;font style=&quot;font-size: 8px;&quot;&gt;&lt;font style=&quot;font-size: 8px;&quot;&gt;&lt;u&gt;+getRecord():void&lt;/u&gt;&lt;br&gt;&lt;/font&gt;&lt;/font&gt;&lt;/p&gt;" style="text;strokeColor=none;fillColor=none;align=left;verticalAlign=top;spacingLeft=4;spacingRight=4;overflow=hidden;rotatable=0;points=[[0,0.5],[1,0.5]];portConstraint=eastwest;whiteSpace=wrap;html=1;" parent="8VrIXo1lg3qWOVsLEivH-17" vertex="1">
          <mxGeometry y="89.37" width="191.5" height="81.63" as="geometry" />
        </mxCell>
        <mxCell id="8VrIXo1lg3qWOVsLEivH-21" value="&lt;p style=&quot;line-height: 0%;&quot;&gt;&lt;font style=&quot;font-size: 9px;&quot;&gt;Reservation&lt;/font&gt;&lt;/p&gt;" style="swimlane;fontStyle=1;align=center;verticalAlign=top;childLayout=stackLayout;horizontal=1;startSize=26;horizontalStack=0;resizeParent=1;resizeParentMax=0;resizeLast=0;collapsible=1;marginBottom=0;whiteSpace=wrap;html=1;" parent="kwfx18V8s8jriJGcK7w_-0" vertex="1">
          <mxGeometry x="734" y="778" width="158" height="339" as="geometry">
            <mxRectangle x="750" y="651" width="170" height="40" as="alternateBounds" />
          </mxGeometry>
        </mxCell>
        <mxCell id="8VrIXo1lg3qWOVsLEivH-22" value="&lt;p style=&quot;line-height: 100%; font-size: 8px;&quot;&gt;&lt;font style=&quot;font-size: 8px;&quot;&gt;&lt;u&gt;-history &lt;span style=&quot;margin: 0px; padding: 0px; border: 0px; font-family: &amp;quot;gg sans&amp;quot;, &amp;quot;Noto Sans&amp;quot;, &amp;quot;Helvetica Neue&amp;quot;, Helvetica, Arial, sans-serif; vertical-align: baseline; outline: 0px; background-color: rgba(2, 2, 2, 0.06);&quot;&gt;: ArrayList&lt;/span&gt;&lt;span style=&quot;margin: 0px; padding: 0px; border: 0px; font-family: &amp;quot;gg sans&amp;quot;, &amp;quot;Noto Sans&amp;quot;, &amp;quot;Helvetica Neue&amp;quot;, Helvetica, Arial, sans-serif; vertical-align: baseline; outline: 0px; background-color: rgba(2, 2, 2, 0.06);&quot;&gt;&amp;lt;Reservation&lt;/span&gt;&lt;span style=&quot;margin: 0px; padding: 0px; border: 0px; font-family: &amp;quot;gg sans&amp;quot;, &amp;quot;Noto Sans&amp;quot;, &amp;quot;Helvetica Neue&amp;quot;, Helvetica, Arial, sans-serif; vertical-align: baseline; outline: 0px; background-color: rgba(2, 2, 2, 0.06);&quot;&gt;&amp;gt;&lt;/span&gt;&lt;/u&gt;&lt;span style=&quot;margin: 0px; padding: 0px; border: 0px; font-family: &amp;quot;gg sans&amp;quot;, &amp;quot;Noto Sans&amp;quot;, &amp;quot;Helvetica Neue&amp;quot;, Helvetica, Arial, sans-serif; vertical-align: baseline; outline: 0px; background-color: rgba(2, 2, 2, 0.06);&quot;&gt;&lt;br&gt;&lt;/span&gt;&lt;span style=&quot;margin: 0px; padding: 0px; border: 0px; font-family: &amp;quot;gg sans&amp;quot;, &amp;quot;Noto Sans&amp;quot;, &amp;quot;Helvetica Neue&amp;quot;, Helvetica, Arial, sans-serif; vertical-align: baseline; outline: 0px; background-color: rgba(2, 2, 2, 0.06);&quot;&gt;-idgenerator &lt;/span&gt;&lt;span style=&quot;margin: 0px; padding: 0px; border: 0px; font-family: &amp;quot;gg sans&amp;quot;, &amp;quot;Noto Sans&amp;quot;, &amp;quot;Helvetica Neue&amp;quot;, Helvetica, Arial, sans-serif; vertical-align: baseline; outline: 0px; background-color: rgba(2, 2, 2, 0.06);&quot;&gt;: int &lt;/span&gt;&lt;span style=&quot;margin: 0px; padding: 0px; border: 0px; font-family: &amp;quot;gg sans&amp;quot;, &amp;quot;Noto Sans&amp;quot;, &amp;quot;Helvetica Neue&amp;quot;, Helvetica, Arial, sans-serif; vertical-align: baseline; outline: 0px; background-color: rgba(2, 2, 2, 0.06);&quot;&gt;(static&lt;/span&gt;&lt;span style=&quot;margin: 0px; padding: 0px; border: 0px; font-family: &amp;quot;gg sans&amp;quot;, &amp;quot;Noto Sans&amp;quot;, &amp;quot;Helvetica Neue&amp;quot;, Helvetica, Arial, sans-serif; vertical-align: baseline; outline: 0px; background-color: rgba(2, 2, 2, 0.06);&quot;&gt;)&lt;br&gt;&lt;/span&gt;&lt;span style=&quot;margin: 0px; padding: 0px; border: 0px; font-family: &amp;quot;gg sans&amp;quot;, &amp;quot;Noto Sans&amp;quot;, &amp;quot;Helvetica Neue&amp;quot;, Helvetica, Arial, sans-serif; vertical-align: baseline; outline: 0px; background-color: rgba(2, 2, 2, 0.06);&quot;&gt;-reservationNum &lt;/span&gt;&lt;span style=&quot;margin: 0px; padding: 0px; border: 0px; font-family: &amp;quot;gg sans&amp;quot;, &amp;quot;Noto Sans&amp;quot;, &amp;quot;Helvetica Neue&amp;quot;, Helvetica, Arial, sans-serif; vertical-align: baseline; outline: 0px; background-color: rgba(2, 2, 2, 0.06);&quot;&gt;: int&lt;br&gt;&lt;/span&gt;&lt;span style=&quot;margin: 0px; padding: 0px; border: 0px; font-family: &amp;quot;gg sans&amp;quot;, &amp;quot;Noto Sans&amp;quot;, &amp;quot;Helvetica Neue&amp;quot;, Helvetica, Arial, sans-serif; vertical-align: baseline; outline: 0px; background-color: rgba(2, 2, 2, 0.06);&quot;&gt;-tableNum &lt;/span&gt;&lt;span style=&quot;margin: 0px; padding: 0px; border: 0px; font-family: &amp;quot;gg sans&amp;quot;, &amp;quot;Noto Sans&amp;quot;, &amp;quot;Helvetica Neue&amp;quot;, Helvetica, Arial, sans-serif; vertical-align: baseline; outline: 0px; background-color: rgba(2, 2, 2, 0.06);&quot;&gt;: int&lt;br&gt;&lt;/span&gt;&lt;span style=&quot;margin: 0px; padding: 0px; border: 0px; font-family: &amp;quot;gg sans&amp;quot;, &amp;quot;Noto Sans&amp;quot;, &amp;quot;Helvetica Neue&amp;quot;, Helvetica, Arial, sans-serif; vertical-align: baseline; outline: 0px; background-color: rgba(2, 2, 2, 0.06);&quot;&gt;-receptionistId &lt;/span&gt;&lt;span style=&quot;margin: 0px; padding: 0px; border: 0px; font-family: &amp;quot;gg sans&amp;quot;, &amp;quot;Noto Sans&amp;quot;, &amp;quot;Helvetica Neue&amp;quot;, Helvetica, Arial, sans-serif; vertical-align: baseline; outline: 0px; background-color: rgba(2, 2, 2, 0.06);&quot;&gt;: int&lt;br&gt;&lt;/span&gt;&lt;span style=&quot;margin: 0px; padding: 0px; border: 0px; font-family: &amp;quot;gg sans&amp;quot;, &amp;quot;Noto Sans&amp;quot;, &amp;quot;Helvetica Neue&amp;quot;, Helvetica, Arial, sans-serif; vertical-align: baseline; outline: 0px; background-color: rgba(2, 2, 2, 0.06);&quot;&gt;-guestId &lt;/span&gt;&lt;span style=&quot;margin: 0px; padding: 0px; border: 0px; font-family: &amp;quot;gg sans&amp;quot;, &amp;quot;Noto Sans&amp;quot;, &amp;quot;Helvetica Neue&amp;quot;, Helvetica, Arial, sans-serif; vertical-align: baseline; outline: 0px; background-color: rgba(2, 2, 2, 0.06);&quot;&gt;: int&lt;br&gt;&lt;/span&gt;&lt;span style=&quot;margin: 0px; padding: 0px; border: 0px; font-family: &amp;quot;gg sans&amp;quot;, &amp;quot;Noto Sans&amp;quot;, &amp;quot;Helvetica Neue&amp;quot;, Helvetica, Arial, sans-serif; vertical-align: baseline; outline: 0px; background-color: rgba(2, 2, 2, 0.06);&quot;&gt;-order &lt;/span&gt;&lt;span style=&quot;margin: 0px; padding: 0px; border: 0px; font-family: &amp;quot;gg sans&amp;quot;, &amp;quot;Noto Sans&amp;quot;, &amp;quot;Helvetica Neue&amp;quot;, Helvetica, Arial, sans-serif; vertical-align: baseline; outline: 0px; background-color: rgba(2, 2, 2, 0.06);&quot;&gt;: ArrayList&lt;/span&gt;&lt;span style=&quot;margin: 0px; padding: 0px; border: 0px; font-family: &amp;quot;gg sans&amp;quot;, &amp;quot;Noto Sans&amp;quot;, &amp;quot;Helvetica Neue&amp;quot;, Helvetica, Arial, sans-serif; vertical-align: baseline; outline: 0px; background-color: rgba(2, 2, 2, 0.06);&quot;&gt;&amp;lt;Integer&lt;/span&gt;&lt;span style=&quot;margin: 0px; padding: 0px; border: 0px; font-family: &amp;quot;gg sans&amp;quot;, &amp;quot;Noto Sans&amp;quot;, &amp;quot;Helvetica Neue&amp;quot;, Helvetica, Arial, sans-serif; vertical-align: baseline; outline: 0px; background-color: rgba(2, 2, 2, 0.06);&quot;&gt;&amp;gt;&lt;br&gt;&lt;/span&gt;&lt;span style=&quot;margin: 0px; padding: 0px; border: 0px; font-family: &amp;quot;gg sans&amp;quot;, &amp;quot;Noto Sans&amp;quot;, &amp;quot;Helvetica Neue&amp;quot;, Helvetica, Arial, sans-serif; vertical-align: baseline; outline: 0px; background-color: rgba(2, 2, 2, 0.06);&quot;&gt;-numOfGuests &lt;/span&gt;&lt;span style=&quot;margin: 0px; padding: 0px; border: 0px; font-family: &amp;quot;gg sans&amp;quot;, &amp;quot;Noto Sans&amp;quot;, &amp;quot;Helvetica Neue&amp;quot;, Helvetica, Arial, sans-serif; vertical-align: baseline; outline: 0px; background-color: rgba(2, 2, 2, 0.06);&quot;&gt;: int&lt;br&gt;&lt;/span&gt;&lt;span style=&quot;margin: 0px; padding: 0px; border: 0px; font-family: &amp;quot;gg sans&amp;quot;, &amp;quot;Noto Sans&amp;quot;, &amp;quot;Helvetica Neue&amp;quot;, Helvetica, Arial, sans-serif; vertical-align: baseline; outline: 0px; background-color: rgba(2, 2, 2, 0.06);&quot;&gt;-&lt;/span&gt;&lt;span style=&quot;margin: 0px; padding: 0px; border: 0px; font-family: &amp;quot;gg sans&amp;quot;, &amp;quot;Noto Sans&amp;quot;, &amp;quot;Helvetica Neue&amp;quot;, Helvetica, Arial, sans-serif; vertical-align: baseline; outline: 0px; background-color: rgba(2, 2, 2, 0.06);&quot;&gt;/price &lt;/span&gt;&lt;span style=&quot;margin: 0px; padding: 0px; border: 0px; font-family: &amp;quot;gg sans&amp;quot;, &amp;quot;Noto Sans&amp;quot;, &amp;quot;Helvetica Neue&amp;quot;, Helvetica, Arial, sans-serif; vertical-align: baseline; outline: 0px; background-color: rgba(2, 2, 2, 0.06);&quot;&gt;: double&lt;br&gt;&lt;/span&gt;&lt;span style=&quot;margin: 0px; padding: 0px; border: 0px; font-family: &amp;quot;gg sans&amp;quot;, &amp;quot;Noto Sans&amp;quot;, &amp;quot;Helvetica Neue&amp;quot;, Helvetica, Arial, sans-serif; vertical-align: baseline; outline: 0px; background-color: rgba(2, 2, 2, 0.06);&quot;&gt;-rating &lt;/span&gt;&lt;span style=&quot;margin: 0px; padding: 0px; border: 0px; font-family: &amp;quot;gg sans&amp;quot;, &amp;quot;Noto Sans&amp;quot;, &amp;quot;Helvetica Neue&amp;quot;, Helvetica, Arial, sans-serif; vertical-align: baseline; outline: 0px; background-color: rgba(2, 2, 2, 0.06);&quot;&gt;: byte&lt;br&gt;&lt;/span&gt;&lt;span style=&quot;margin: 0px; padding: 0px; border: 0px; font-family: &amp;quot;gg sans&amp;quot;, &amp;quot;Noto Sans&amp;quot;, &amp;quot;Helvetica Neue&amp;quot;, Helvetica, Arial, sans-serif; vertical-align: baseline; outline: 0px; background-color: rgba(2, 2, 2, 0.06);&quot;&gt;-date &lt;/span&gt;&lt;span style=&quot;margin: 0px; padding: 0px; border: 0px; font-family: &amp;quot;gg sans&amp;quot;, &amp;quot;Noto Sans&amp;quot;, &amp;quot;Helvetica Neue&amp;quot;, Helvetica, Arial, sans-serif; vertical-align: baseline; outline: 0px; background-color: rgba(2, 2, 2, 0.06);&quot;&gt;: java&lt;/span&gt;&lt;span style=&quot;margin: 0px; padding: 0px; border: 0px; font-family: &amp;quot;gg sans&amp;quot;, &amp;quot;Noto Sans&amp;quot;, &amp;quot;Helvetica Neue&amp;quot;, Helvetica, Arial, sans-serif; vertical-align: baseline; outline: 0px; background-color: rgba(2, 2, 2, 0.06);&quot;&gt;.util&lt;/span&gt;&lt;span style=&quot;margin: 0px; padding: 0px; border: 0px; font-family: &amp;quot;gg sans&amp;quot;, &amp;quot;Noto Sans&amp;quot;, &amp;quot;Helvetica Neue&amp;quot;, Helvetica, Arial, sans-serif; vertical-align: baseline; outline: 0px; background-color: rgba(2, 2, 2, 0.06);&quot;&gt;.Date&lt;br&gt;&lt;/span&gt;&lt;span style=&quot;margin: 0px; padding: 0px; border: 0px; font-family: &amp;quot;gg sans&amp;quot;, &amp;quot;Noto Sans&amp;quot;, &amp;quot;Helvetica Neue&amp;quot;, Helvetica, Arial, sans-serif; vertical-align: baseline; outline: 0px; background-color: rgba(2, 2, 2, 0.06);&quot;&gt;-startTime &lt;/span&gt;&lt;span style=&quot;margin: 0px; padding: 0px; border: 0px; font-family: &amp;quot;gg sans&amp;quot;, &amp;quot;Noto Sans&amp;quot;, &amp;quot;Helvetica Neue&amp;quot;, Helvetica, Arial, sans-serif; vertical-align: baseline; outline: 0px; background-color: rgba(2, 2, 2, 0.06);&quot;&gt;: java&lt;/span&gt;&lt;span style=&quot;margin: 0px; padding: 0px; border: 0px; font-family: &amp;quot;gg sans&amp;quot;, &amp;quot;Noto Sans&amp;quot;, &amp;quot;Helvetica Neue&amp;quot;, Helvetica, Arial, sans-serif; vertical-align: baseline; outline: 0px; background-color: rgba(2, 2, 2, 0.06);&quot;&gt;.util&lt;/span&gt;&lt;span style=&quot;margin: 0px; padding: 0px; border: 0px; font-family: &amp;quot;gg sans&amp;quot;, &amp;quot;Noto Sans&amp;quot;, &amp;quot;Helvetica Neue&amp;quot;, Helvetica, Arial, sans-serif; vertical-align: baseline; outline: 0px; background-color: rgba(2, 2, 2, 0.06);&quot;&gt;.LocalTime&lt;br&gt;&lt;/span&gt;&lt;span style=&quot;margin: 0px; padding: 0px; border: 0px; font-family: &amp;quot;gg sans&amp;quot;, &amp;quot;Noto Sans&amp;quot;, &amp;quot;Helvetica Neue&amp;quot;, Helvetica, Arial, sans-serif; vertical-align: baseline; outline: 0px; background-color: rgba(2, 2, 2, 0.06);&quot;&gt;-endTime &lt;/span&gt;&lt;span style=&quot;margin: 0px; padding: 0px; border: 0px; font-family: &amp;quot;gg sans&amp;quot;, &amp;quot;Noto Sans&amp;quot;, &amp;quot;Helvetica Neue&amp;quot;, Helvetica, Arial, sans-serif; vertical-align: baseline; outline: 0px; background-color: rgba(2, 2, 2, 0.06);&quot;&gt;: java&lt;/span&gt;&lt;span style=&quot;margin: 0px; padding: 0px; border: 0px; font-family: &amp;quot;gg sans&amp;quot;, &amp;quot;Noto Sans&amp;quot;, &amp;quot;Helvetica Neue&amp;quot;, Helvetica, Arial, sans-serif; vertical-align: baseline; outline: 0px; background-color: rgba(2, 2, 2, 0.06);&quot;&gt;.util&lt;/span&gt;&lt;span style=&quot;margin: 0px; padding: 0px; border: 0px; font-family: &amp;quot;gg sans&amp;quot;, &amp;quot;Noto Sans&amp;quot;, &amp;quot;Helvetica Neue&amp;quot;, Helvetica, Arial, sans-serif; vertical-align: baseline; outline: 0px; background-color: rgba(2, 2, 2, 0.06);&quot;&gt;.LocalTime&lt;/span&gt;&lt;br&gt;&lt;/font&gt;&lt;/p&gt;" style="text;strokeColor=none;fillColor=none;align=left;verticalAlign=top;spacingLeft=4;spacingRight=4;overflow=hidden;rotatable=0;points=[[0,0.5],[1,0.5]];portConstraint=eastwest;whiteSpace=wrap;html=1;" parent="8VrIXo1lg3qWOVsLEivH-21" vertex="1">
          <mxGeometry y="26" width="158" height="124" as="geometry" />
        </mxCell>
        <mxCell id="8VrIXo1lg3qWOVsLEivH-23" value="" style="line;strokeWidth=1;fillColor=none;align=left;verticalAlign=middle;spacingTop=-1;spacingLeft=3;spacingRight=3;rotatable=0;labelPosition=right;points=[];portConstraint=eastwest;strokeColor=inherit;" parent="8VrIXo1lg3qWOVsLEivH-21" vertex="1">
          <mxGeometry y="150" width="158" height="1.75" as="geometry" />
        </mxCell>
        <mxCell id="8VrIXo1lg3qWOVsLEivH-24" value="&lt;p style=&quot;line-height: 110%; font-size: 8px;&quot;&gt;&lt;font style=&quot;font-size: 8px;&quot;&gt;+Reservation&lt;span style=&quot;margin: 0px; padding: 0px; border: 0px; font-family: &amp;quot;gg sans&amp;quot;, &amp;quot;Noto Sans&amp;quot;, &amp;quot;Helvetica Neue&amp;quot;, Helvetica, Arial, sans-serif; vertical-align: baseline; outline: 0px; background-color: rgba(2, 2, 2, 0.06);&quot;&gt;(&lt;/span&gt;&lt;span style=&quot;margin: 0px; padding: 0px; border: 0px; font-family: &amp;quot;gg sans&amp;quot;, &amp;quot;Noto Sans&amp;quot;, &amp;quot;Helvetica Neue&amp;quot;, Helvetica, Arial, sans-serif; vertical-align: baseline; outline: 0px; background-color: rgba(2, 2, 2, 0.06);&quot;&gt;)&lt;br&gt;&lt;/span&gt;&lt;span style=&quot;margin: 0px; padding: 0px; border: 0px; font-family: &amp;quot;gg sans&amp;quot;, &amp;quot;Noto Sans&amp;quot;, &amp;quot;Helvetica Neue&amp;quot;, Helvetica, Arial, sans-serif; vertical-align: baseline; outline: 0px; background-color: rgba(2, 2, 2, 0.06);&quot;&gt;+takeOrder&lt;/span&gt;&lt;span style=&quot;margin: 0px; padding: 0px; border: 0px; font-family: &amp;quot;gg sans&amp;quot;, &amp;quot;Noto Sans&amp;quot;, &amp;quot;Helvetica Neue&amp;quot;, Helvetica, Arial, sans-serif; vertical-align: baseline; outline: 0px; background-color: rgba(2, 2, 2, 0.06);&quot;&gt;(order &lt;/span&gt;&lt;span style=&quot;margin: 0px; padding: 0px; border: 0px; font-family: &amp;quot;gg sans&amp;quot;, &amp;quot;Noto Sans&amp;quot;, &amp;quot;Helvetica Neue&amp;quot;, Helvetica, Arial, sans-serif; vertical-align: baseline; outline: 0px; background-color: rgba(2, 2, 2, 0.06);&quot;&gt;: ArrayList&lt;/span&gt;&lt;span style=&quot;margin: 0px; padding: 0px; border: 0px; font-family: &amp;quot;gg sans&amp;quot;, &amp;quot;Noto Sans&amp;quot;, &amp;quot;Helvetica Neue&amp;quot;, Helvetica, Arial, sans-serif; vertical-align: baseline; outline: 0px; background-color: rgba(2, 2, 2, 0.06);&quot;&gt;&amp;lt;Meal&lt;/span&gt;&lt;span style=&quot;margin: 0px; padding: 0px; border: 0px; font-family: &amp;quot;gg sans&amp;quot;, &amp;quot;Noto Sans&amp;quot;, &amp;quot;Helvetica Neue&amp;quot;, Helvetica, Arial, sans-serif; vertical-align: baseline; outline: 0px; background-color: rgba(2, 2, 2, 0.06);&quot;&gt;&amp;gt;&lt;/span&gt;&lt;span style=&quot;margin: 0px; padding: 0px; border: 0px; font-family: &amp;quot;gg sans&amp;quot;, &amp;quot;Noto Sans&amp;quot;, &amp;quot;Helvetica Neue&amp;quot;, Helvetica, Arial, sans-serif; vertical-align: baseline; outline: 0px; background-color: rgba(2, 2, 2, 0.06);&quot;&gt;) &lt;/span&gt;&lt;span style=&quot;margin: 0px; padding: 0px; border: 0px; font-family: &amp;quot;gg sans&amp;quot;, &amp;quot;Noto Sans&amp;quot;, &amp;quot;Helvetica Neue&amp;quot;, Helvetica, Arial, sans-serif; vertical-align: baseline; outline: 0px; background-color: rgba(2, 2, 2, 0.06);&quot;&gt;: void&lt;br&gt;&lt;/span&gt;&lt;span style=&quot;margin: 0px; padding: 0px; border: 0px; font-family: &amp;quot;gg sans&amp;quot;, &amp;quot;Noto Sans&amp;quot;, &amp;quot;Helvetica Neue&amp;quot;, Helvetica, Arial, sans-serif; vertical-align: baseline; outline: 0px; background-color: rgba(2, 2, 2, 0.06);&quot;&gt;-calculatePayment&lt;/span&gt;&lt;span style=&quot;margin: 0px; padding: 0px; border: 0px; font-family: &amp;quot;gg sans&amp;quot;, &amp;quot;Noto Sans&amp;quot;, &amp;quot;Helvetica Neue&amp;quot;, Helvetica, Arial, sans-serif; vertical-align: baseline; outline: 0px; background-color: rgba(2, 2, 2, 0.06);&quot;&gt;(&lt;/span&gt;&lt;span style=&quot;margin: 0px; padding: 0px; border: 0px; font-family: &amp;quot;gg sans&amp;quot;, &amp;quot;Noto Sans&amp;quot;, &amp;quot;Helvetica Neue&amp;quot;, Helvetica, Arial, sans-serif; vertical-align: baseline; outline: 0px; background-color: rgba(2, 2, 2, 0.06);&quot;&gt;) &lt;/span&gt;&lt;span style=&quot;margin: 0px; padding: 0px; border: 0px; font-family: &amp;quot;gg sans&amp;quot;, &amp;quot;Noto Sans&amp;quot;, &amp;quot;Helvetica Neue&amp;quot;, Helvetica, Arial, sans-serif; vertical-align: baseline; outline: 0px; background-color: rgba(2, 2, 2, 0.06);&quot;&gt;: void&lt;br&gt;&lt;/span&gt;&lt;span style=&quot;margin: 0px; padding: 0px; border: 0px; font-family: &amp;quot;gg sans&amp;quot;, &amp;quot;Noto Sans&amp;quot;, &amp;quot;Helvetica Neue&amp;quot;, Helvetica, Arial, sans-serif; vertical-align: baseline; outline: 0px; background-color: rgba(2, 2, 2, 0.06);&quot;&gt;-isReserved&lt;/span&gt;&lt;span style=&quot;margin: 0px; padding: 0px; border: 0px; font-family: &amp;quot;gg sans&amp;quot;, &amp;quot;Noto Sans&amp;quot;, &amp;quot;Helvetica Neue&amp;quot;, Helvetica, Arial, sans-serif; vertical-align: baseline; outline: 0px; background-color: rgba(2, 2, 2, 0.06);&quot;&gt;(&lt;/span&gt;&lt;span style=&quot;margin: 0px; padding: 0px; border: 0px; font-family: &amp;quot;gg sans&amp;quot;, &amp;quot;Noto Sans&amp;quot;, &amp;quot;Helvetica Neue&amp;quot;, Helvetica, Arial, sans-serif; vertical-align: baseline; outline: 0px; background-color: rgba(2, 2, 2, 0.06);&quot;&gt;) &lt;/span&gt;&lt;span style=&quot;margin: 0px; padding: 0px; border: 0px; font-family: &amp;quot;gg sans&amp;quot;, &amp;quot;Noto Sans&amp;quot;, &amp;quot;Helvetica Neue&amp;quot;, Helvetica, Arial, sans-serif; vertical-align: baseline; outline: 0px; background-color: rgba(2, 2, 2, 0.06);&quot;&gt;: boolean&lt;br&gt;&lt;/span&gt;&lt;span style=&quot;margin: 0px; padding: 0px; border: 0px; font-family: &amp;quot;gg sans&amp;quot;, &amp;quot;Noto Sans&amp;quot;, &amp;quot;Helvetica Neue&amp;quot;, Helvetica, Arial, sans-serif; vertical-align: baseline; outline: 0px; background-color: rgba(2, 2, 2, 0.06);&quot;&gt;-orderNames&lt;/span&gt;&lt;span style=&quot;margin: 0px; padding: 0px; border: 0px; font-family: &amp;quot;gg sans&amp;quot;, &amp;quot;Noto Sans&amp;quot;, &amp;quot;Helvetica Neue&amp;quot;, Helvetica, Arial, sans-serif; vertical-align: baseline; outline: 0px; background-color: rgba(2, 2, 2, 0.06);&quot;&gt;(&lt;/span&gt;&lt;span style=&quot;margin: 0px; padding: 0px; border: 0px; font-family: &amp;quot;gg sans&amp;quot;, &amp;quot;Noto Sans&amp;quot;, &amp;quot;Helvetica Neue&amp;quot;, Helvetica, Arial, sans-serif; vertical-align: baseline; outline: 0px; background-color: rgba(2, 2, 2, 0.06);&quot;&gt;) &lt;/span&gt;&lt;span style=&quot;margin: 0px; padding: 0px; border: 0px; font-family: &amp;quot;gg sans&amp;quot;, &amp;quot;Noto Sans&amp;quot;, &amp;quot;Helvetica Neue&amp;quot;, Helvetica, Arial, sans-serif; vertical-align: baseline; outline: 0px; background-color: rgba(2, 2, 2, 0.06);&quot;&gt;: String&lt;br&gt;&lt;/span&gt;&lt;u&gt;&lt;span style=&quot;margin: 0px; padding: 0px; border: 0px; font-family: &amp;quot;gg sans&amp;quot;, &amp;quot;Noto Sans&amp;quot;, &amp;quot;Helvetica Neue&amp;quot;, Helvetica, Arial, sans-serif; vertical-align: baseline; outline: 0px; background-color: rgba(2, 2, 2, 0.06);&quot;&gt;+search&lt;/span&gt;&lt;span style=&quot;margin: 0px; padding: 0px; border: 0px; font-family: &amp;quot;gg sans&amp;quot;, &amp;quot;Noto Sans&amp;quot;, &amp;quot;Helvetica Neue&amp;quot;, Helvetica, Arial, sans-serif; vertical-align: baseline; outline: 0px; background-color: rgba(2, 2, 2, 0.06);&quot;&gt;(id &lt;/span&gt;&lt;span style=&quot;margin: 0px; padding: 0px; border: 0px; font-family: &amp;quot;gg sans&amp;quot;, &amp;quot;Noto Sans&amp;quot;, &amp;quot;Helvetica Neue&amp;quot;, Helvetica, Arial, sans-serif; vertical-align: baseline; outline: 0px; background-color: rgba(2, 2, 2, 0.06);&quot;&gt;: int&lt;/span&gt;&lt;span style=&quot;margin: 0px; padding: 0px; border: 0px; font-family: &amp;quot;gg sans&amp;quot;, &amp;quot;Noto Sans&amp;quot;, &amp;quot;Helvetica Neue&amp;quot;, Helvetica, Arial, sans-serif; vertical-align: baseline; outline: 0px; background-color: rgba(2, 2, 2, 0.06);&quot;&gt;) &lt;/span&gt;&lt;span style=&quot;margin: 0px; padding: 0px; border: 0px; font-family: &amp;quot;gg sans&amp;quot;, &amp;quot;Noto Sans&amp;quot;, &amp;quot;Helvetica Neue&amp;quot;, Helvetica, Arial, sans-serif; vertical-align: baseline; outline: 0px; background-color: rgba(2, 2, 2, 0.06);&quot;&gt;: Reservation&lt;/span&gt;&lt;/u&gt;&lt;span style=&quot;margin: 0px; padding: 0px; border: 0px; font-family: &amp;quot;gg sans&amp;quot;, &amp;quot;Noto Sans&amp;quot;, &amp;quot;Helvetica Neue&amp;quot;, Helvetica, Arial, sans-serif; vertical-align: baseline; outline: 0px; background-color: rgba(2, 2, 2, 0.06);&quot;&gt;&lt;br&gt;&lt;/span&gt;&lt;u&gt;&lt;span style=&quot;margin: 0px; padding: 0px; border: 0px; font-family: &amp;quot;gg sans&amp;quot;, &amp;quot;Noto Sans&amp;quot;, &amp;quot;Helvetica Neue&amp;quot;, Helvetica, Arial, sans-serif; vertical-align: baseline; outline: 0px; background-color: rgba(2, 2, 2, 0.06);&quot;&gt;+search&lt;/span&gt;&lt;span style=&quot;margin: 0px; padding: 0px; border: 0px; font-family: &amp;quot;gg sans&amp;quot;, &amp;quot;Noto Sans&amp;quot;, &amp;quot;Helvetica Neue&amp;quot;, Helvetica, Arial, sans-serif; vertical-align: baseline; outline: 0px; background-color: rgba(2, 2, 2, 0.06);&quot;&gt;(key &lt;/span&gt;&lt;span style=&quot;margin: 0px; padding: 0px; border: 0px; font-family: &amp;quot;gg sans&amp;quot;, &amp;quot;Noto Sans&amp;quot;, &amp;quot;Helvetica Neue&amp;quot;, Helvetica, Arial, sans-serif; vertical-align: baseline; outline: 0px; background-color: rgba(2, 2, 2, 0.06);&quot;&gt;: Table&lt;/span&gt;&lt;span style=&quot;margin: 0px; padding: 0px; border: 0px; font-family: &amp;quot;gg sans&amp;quot;, &amp;quot;Noto Sans&amp;quot;, &amp;quot;Helvetica Neue&amp;quot;, Helvetica, Arial, sans-serif; vertical-align: baseline; outline: 0px; background-color: rgba(2, 2, 2, 0.06);&quot;&gt;) &lt;/span&gt;&lt;span style=&quot;margin: 0px; padding: 0px; border: 0px; font-family: &amp;quot;gg sans&amp;quot;, &amp;quot;Noto Sans&amp;quot;, &amp;quot;Helvetica Neue&amp;quot;, Helvetica, Arial, sans-serif; vertical-align: baseline; outline: 0px; background-color: rgba(2, 2, 2, 0.06);&quot;&gt;: ArrayList&lt;/span&gt;&lt;span style=&quot;margin: 0px; padding: 0px; border: 0px; font-family: &amp;quot;gg sans&amp;quot;, &amp;quot;Noto Sans&amp;quot;, &amp;quot;Helvetica Neue&amp;quot;, Helvetica, Arial, sans-serif; vertical-align: baseline; outline: 0px; background-color: rgba(2, 2, 2, 0.06);&quot;&gt;&amp;lt;Reservation&lt;/span&gt;&lt;span style=&quot;margin: 0px; padding: 0px; border: 0px; font-family: &amp;quot;gg sans&amp;quot;, &amp;quot;Noto Sans&amp;quot;, &amp;quot;Helvetica Neue&amp;quot;, Helvetica, Arial, sans-serif; vertical-align: baseline; outline: 0px; background-color: rgba(2, 2, 2, 0.06);&quot;&gt;&amp;gt;&lt;/span&gt;&lt;/u&gt;&lt;span style=&quot;margin: 0px; padding: 0px; border: 0px; font-family: &amp;quot;gg sans&amp;quot;, &amp;quot;Noto Sans&amp;quot;, &amp;quot;Helvetica Neue&amp;quot;, Helvetica, Arial, sans-serif; vertical-align: baseline; outline: 0px; background-color: rgba(2, 2, 2, 0.06);&quot;&gt;&lt;br&gt;&lt;/span&gt;&lt;u&gt;&lt;span style=&quot;margin: 0px; padding: 0px; border: 0px; font-family: &amp;quot;gg sans&amp;quot;, &amp;quot;Noto Sans&amp;quot;, &amp;quot;Helvetica Neue&amp;quot;, Helvetica, Arial, sans-serif; vertical-align: baseline; outline: 0px; background-color: rgba(2, 2, 2, 0.06);&quot;&gt;+search&lt;/span&gt;&lt;span style=&quot;margin: 0px; padding: 0px; border: 0px; font-family: &amp;quot;gg sans&amp;quot;, &amp;quot;Noto Sans&amp;quot;, &amp;quot;Helvetica Neue&amp;quot;, Helvetica, Arial, sans-serif; vertical-align: baseline; outline: 0px; background-color: rgba(2, 2, 2, 0.06);&quot;&gt;(key &lt;/span&gt;&lt;span style=&quot;margin: 0px; padding: 0px; border: 0px; font-family: &amp;quot;gg sans&amp;quot;, &amp;quot;Noto Sans&amp;quot;, &amp;quot;Helvetica Neue&amp;quot;, Helvetica, Arial, sans-serif; vertical-align: baseline; outline: 0px; background-color: rgba(2, 2, 2, 0.06);&quot;&gt;: Receptionist&lt;/span&gt;&lt;span style=&quot;margin: 0px; padding: 0px; border: 0px; font-family: &amp;quot;gg sans&amp;quot;, &amp;quot;Noto Sans&amp;quot;, &amp;quot;Helvetica Neue&amp;quot;, Helvetica, Arial, sans-serif; vertical-align: baseline; outline: 0px; background-color: rgba(2, 2, 2, 0.06);&quot;&gt;) &lt;/span&gt;&lt;span style=&quot;margin: 0px; padding: 0px; border: 0px; font-family: &amp;quot;gg sans&amp;quot;, &amp;quot;Noto Sans&amp;quot;, &amp;quot;Helvetica Neue&amp;quot;, Helvetica, Arial, sans-serif; vertical-align: baseline; outline: 0px; background-color: rgba(2, 2, 2, 0.06);&quot;&gt;: ArrayList&lt;/span&gt;&lt;span style=&quot;margin: 0px; padding: 0px; border: 0px; font-family: &amp;quot;gg sans&amp;quot;, &amp;quot;Noto Sans&amp;quot;, &amp;quot;Helvetica Neue&amp;quot;, Helvetica, Arial, sans-serif; vertical-align: baseline; outline: 0px; background-color: rgba(2, 2, 2, 0.06);&quot;&gt;&amp;lt;Reservation&lt;/span&gt;&lt;span style=&quot;margin: 0px; padding: 0px; border: 0px; font-family: &amp;quot;gg sans&amp;quot;, &amp;quot;Noto Sans&amp;quot;, &amp;quot;Helvetica Neue&amp;quot;, Helvetica, Arial, sans-serif; vertical-align: baseline; outline: 0px; background-color: rgba(2, 2, 2, 0.06);&quot;&gt;&amp;gt;&lt;/span&gt;&lt;/u&gt;&lt;span style=&quot;margin: 0px; padding: 0px; border: 0px; font-family: &amp;quot;gg sans&amp;quot;, &amp;quot;Noto Sans&amp;quot;, &amp;quot;Helvetica Neue&amp;quot;, Helvetica, Arial, sans-serif; vertical-align: baseline; outline: 0px; background-color: rgba(2, 2, 2, 0.06);&quot;&gt;&lt;br&gt;&lt;/span&gt;&lt;u&gt;&lt;span style=&quot;margin: 0px; padding: 0px; border: 0px; font-family: &amp;quot;gg sans&amp;quot;, &amp;quot;Noto Sans&amp;quot;, &amp;quot;Helvetica Neue&amp;quot;, Helvetica, Arial, sans-serif; vertical-align: baseline; outline: 0px; background-color: rgba(2, 2, 2, 0.06);&quot;&gt;+search&lt;/span&gt;&lt;span style=&quot;margin: 0px; padding: 0px; border: 0px; font-family: &amp;quot;gg sans&amp;quot;, &amp;quot;Noto Sans&amp;quot;, &amp;quot;Helvetica Neue&amp;quot;, Helvetica, Arial, sans-serif; vertical-align: baseline; outline: 0px; background-color: rgba(2, 2, 2, 0.06);&quot;&gt;(key &lt;/span&gt;&lt;span style=&quot;margin: 0px; padding: 0px; border: 0px; font-family: &amp;quot;gg sans&amp;quot;, &amp;quot;Noto Sans&amp;quot;, &amp;quot;Helvetica Neue&amp;quot;, Helvetica, Arial, sans-serif; vertical-align: baseline; outline: 0px; background-color: rgba(2, 2, 2, 0.06);&quot;&gt;: Guest&lt;/span&gt;&lt;span style=&quot;margin: 0px; padding: 0px; border: 0px; font-family: &amp;quot;gg sans&amp;quot;, &amp;quot;Noto Sans&amp;quot;, &amp;quot;Helvetica Neue&amp;quot;, Helvetica, Arial, sans-serif; vertical-align: baseline; outline: 0px; background-color: rgba(2, 2, 2, 0.06);&quot;&gt;) &lt;/span&gt;&lt;span style=&quot;margin: 0px; padding: 0px; border: 0px; font-family: &amp;quot;gg sans&amp;quot;, &amp;quot;Noto Sans&amp;quot;, &amp;quot;Helvetica Neue&amp;quot;, Helvetica, Arial, sans-serif; vertical-align: baseline; outline: 0px; background-color: rgba(2, 2, 2, 0.06);&quot;&gt;: ArrayList&lt;/span&gt;&lt;span style=&quot;margin: 0px; padding: 0px; border: 0px; font-family: &amp;quot;gg sans&amp;quot;, &amp;quot;Noto Sans&amp;quot;, &amp;quot;Helvetica Neue&amp;quot;, Helvetica, Arial, sans-serif; vertical-align: baseline; outline: 0px; background-color: rgba(2, 2, 2, 0.06);&quot;&gt;&amp;lt;Reservation&lt;/span&gt;&lt;span style=&quot;margin: 0px; padding: 0px; border: 0px; font-family: &amp;quot;gg sans&amp;quot;, &amp;quot;Noto Sans&amp;quot;, &amp;quot;Helvetica Neue&amp;quot;, Helvetica, Arial, sans-serif; vertical-align: baseline; outline: 0px; background-color: rgba(2, 2, 2, 0.06);&quot;&gt;&amp;gt;&lt;/span&gt;&lt;/u&gt;&lt;span style=&quot;margin: 0px; padding: 0px; border: 0px; font-family: &amp;quot;gg sans&amp;quot;, &amp;quot;Noto Sans&amp;quot;, &amp;quot;Helvetica Neue&amp;quot;, Helvetica, Arial, sans-serif; vertical-align: baseline; outline: 0px; background-color: rgba(2, 2, 2, 0.06);&quot;&gt;&lt;br&gt;&lt;/span&gt;&lt;u&gt;&lt;span style=&quot;margin: 0px; padding: 0px; border: 0px; font-family: &amp;quot;gg sans&amp;quot;, &amp;quot;Noto Sans&amp;quot;, &amp;quot;Helvetica Neue&amp;quot;, Helvetica, Arial, sans-serif; vertical-align: baseline; outline: 0px; background-color: rgba(2, 2, 2, 0.06);&quot;&gt;+search&lt;/span&gt;&lt;span style=&quot;margin: 0px; padding: 0px; border: 0px; font-family: &amp;quot;gg sans&amp;quot;, &amp;quot;Noto Sans&amp;quot;, &amp;quot;Helvetica Neue&amp;quot;, Helvetica, Arial, sans-serif; vertical-align: baseline; outline: 0px; background-color: rgba(2, 2, 2, 0.06);&quot;&gt;(key &lt;/span&gt;&lt;span style=&quot;margin: 0px; padding: 0px; border: 0px; font-family: &amp;quot;gg sans&amp;quot;, &amp;quot;Noto Sans&amp;quot;, &amp;quot;Helvetica Neue&amp;quot;, Helvetica, Arial, sans-serif; vertical-align: baseline; outline: 0px; background-color: rgba(2, 2, 2, 0.06);&quot;&gt;: Meal&lt;/span&gt;&lt;span style=&quot;margin: 0px; padding: 0px; border: 0px; font-family: &amp;quot;gg sans&amp;quot;, &amp;quot;Noto Sans&amp;quot;, &amp;quot;Helvetica Neue&amp;quot;, Helvetica, Arial, sans-serif; vertical-align: baseline; outline: 0px; background-color: rgba(2, 2, 2, 0.06);&quot;&gt;) &lt;/span&gt;&lt;span style=&quot;margin: 0px; padding: 0px; border: 0px; font-family: &amp;quot;gg sans&amp;quot;, &amp;quot;Noto Sans&amp;quot;, &amp;quot;Helvetica Neue&amp;quot;, Helvetica, Arial, sans-serif; vertical-align: baseline; outline: 0px; background-color: rgba(2, 2, 2, 0.06);&quot;&gt;: ArrayList&lt;/span&gt;&lt;span style=&quot;margin: 0px; padding: 0px; border: 0px; font-family: &amp;quot;gg sans&amp;quot;, &amp;quot;Noto Sans&amp;quot;, &amp;quot;Helvetica Neue&amp;quot;, Helvetica, Arial, sans-serif; vertical-align: baseline; outline: 0px; background-color: rgba(2, 2, 2, 0.06);&quot;&gt;&amp;lt;Reservation&lt;/span&gt;&lt;span style=&quot;margin: 0px; padding: 0px; border: 0px; font-family: &amp;quot;gg sans&amp;quot;, &amp;quot;Noto Sans&amp;quot;, &amp;quot;Helvetica Neue&amp;quot;, Helvetica, Arial, sans-serif; vertical-align: baseline; outline: 0px; background-color: rgba(2, 2, 2, 0.06);&quot;&gt;&amp;gt;&lt;/span&gt;&lt;/u&gt;&lt;span style=&quot;margin: 0px; padding: 0px; border: 0px; font-family: &amp;quot;gg sans&amp;quot;, &amp;quot;Noto Sans&amp;quot;, &amp;quot;Helvetica Neue&amp;quot;, Helvetica, Arial, sans-serif; vertical-align: baseline; outline: 0px; background-color: rgba(2, 2, 2, 0.06);&quot;&gt;&lt;br&gt;&lt;/span&gt;&lt;u&gt;&lt;span style=&quot;margin: 0px; padding: 0px; border: 0px; font-family: &amp;quot;gg sans&amp;quot;, &amp;quot;Noto Sans&amp;quot;, &amp;quot;Helvetica Neue&amp;quot;, Helvetica, Arial, sans-serif; vertical-align: baseline; outline: 0px; background-color: rgba(2, 2, 2, 0.06);&quot;&gt;+getRecord&lt;/span&gt;&lt;span style=&quot;margin: 0px; padding: 0px; border: 0px; font-family: &amp;quot;gg sans&amp;quot;, &amp;quot;Noto Sans&amp;quot;, &amp;quot;Helvetica Neue&amp;quot;, Helvetica, Arial, sans-serif; vertical-align: baseline; outline: 0px; background-color: rgba(2, 2, 2, 0.06);&quot;&gt;(&lt;/span&gt;&lt;span style=&quot;margin: 0px; padding: 0px; border: 0px; font-family: &amp;quot;gg sans&amp;quot;, &amp;quot;Noto Sans&amp;quot;, &amp;quot;Helvetica Neue&amp;quot;, Helvetica, Arial, sans-serif; vertical-align: baseline; outline: 0px; background-color: rgba(2, 2, 2, 0.06);&quot;&gt;) &lt;/span&gt;&lt;span style=&quot;margin: 0px; padding: 0px; border: 0px; font-family: &amp;quot;gg sans&amp;quot;, &amp;quot;Noto Sans&amp;quot;, &amp;quot;Helvetica Neue&amp;quot;, Helvetica, Arial, sans-serif; vertical-align: baseline; outline: 0px; background-color: rgba(2, 2, 2, 0.06);&quot;&gt;: void&lt;/span&gt;&lt;/u&gt;&lt;span style=&quot;margin: 0px; padding: 0px; border: 0px; font-family: &amp;quot;gg sans&amp;quot;, &amp;quot;Noto Sans&amp;quot;, &amp;quot;Helvetica Neue&amp;quot;, Helvetica, Arial, sans-serif; vertical-align: baseline; outline: 0px; background-color: rgba(2, 2, 2, 0.06);&quot;&gt;&lt;br&gt;&lt;/span&gt;&lt;u&gt;&lt;span style=&quot;margin: 0px; padding: 0px; border: 0px; font-family: &amp;quot;gg sans&amp;quot;, &amp;quot;Noto Sans&amp;quot;, &amp;quot;Helvetica Neue&amp;quot;, Helvetica, Arial, sans-serif; vertical-align: baseline; outline: 0px; background-color: rgba(2, 2, 2, 0.06);&quot;&gt;+saveRecord&lt;/span&gt;&lt;span style=&quot;margin: 0px; padding: 0px; border: 0px; font-family: &amp;quot;gg sans&amp;quot;, &amp;quot;Noto Sans&amp;quot;, &amp;quot;Helvetica Neue&amp;quot;, Helvetica, Arial, sans-serif; vertical-align: baseline; outline: 0px; background-color: rgba(2, 2, 2, 0.06);&quot;&gt;(&lt;/span&gt;&lt;span style=&quot;margin: 0px; padding: 0px; border: 0px; font-family: &amp;quot;gg sans&amp;quot;, &amp;quot;Noto Sans&amp;quot;, &amp;quot;Helvetica Neue&amp;quot;, Helvetica, Arial, sans-serif; vertical-align: baseline; outline: 0px; background-color: rgba(2, 2, 2, 0.06);&quot;&gt;) &lt;/span&gt;&lt;span style=&quot;margin: 0px; padding: 0px; border: 0px; font-family: &amp;quot;gg sans&amp;quot;, &amp;quot;Noto Sans&amp;quot;, &amp;quot;Helvetica Neue&amp;quot;, Helvetica, Arial, sans-serif; vertical-align: baseline; outline: 0px; background-color: rgba(2, 2, 2, 0.06);&quot;&gt;: void&lt;/span&gt;&lt;/u&gt;&lt;span style=&quot;margin: 0px; padding: 0px; border: 0px; font-family: &amp;quot;gg sans&amp;quot;, &amp;quot;Noto Sans&amp;quot;, &amp;quot;Helvetica Neue&amp;quot;, Helvetica, Arial, sans-serif; vertical-align: baseline; outline: 0px; background-color: rgba(2, 2, 2, 0.06);&quot;&gt;&lt;br&gt;&lt;/span&gt;&lt;span style=&quot;margin: 0px; padding: 0px; border: 0px; font-family: &amp;quot;gg sans&amp;quot;, &amp;quot;Noto Sans&amp;quot;, &amp;quot;Helvetica Neue&amp;quot;, Helvetica, Arial, sans-serif; vertical-align: baseline; outline: 0px; background-color: rgba(2, 2, 2, 0.06);&quot;&gt;+toString&lt;/span&gt;&lt;span style=&quot;margin: 0px; padding: 0px; border: 0px; font-family: &amp;quot;gg sans&amp;quot;, &amp;quot;Noto Sans&amp;quot;, &amp;quot;Helvetica Neue&amp;quot;, Helvetica, Arial, sans-serif; vertical-align: baseline; outline: 0px; background-color: rgba(2, 2, 2, 0.06);&quot;&gt;(&lt;/span&gt;&lt;span style=&quot;margin: 0px; padding: 0px; border: 0px; font-family: &amp;quot;gg sans&amp;quot;, &amp;quot;Noto Sans&amp;quot;, &amp;quot;Helvetica Neue&amp;quot;, Helvetica, Arial, sans-serif; vertical-align: baseline; outline: 0px; background-color: rgba(2, 2, 2, 0.06);&quot;&gt;) &lt;/span&gt;&lt;span style=&quot;margin: 0px; padding: 0px; border: 0px; font-family: &amp;quot;gg sans&amp;quot;, &amp;quot;Noto Sans&amp;quot;, &amp;quot;Helvetica Neue&amp;quot;, Helvetica, Arial, sans-serif; vertical-align: baseline; outline: 0px; background-color: rgba(2, 2, 2, 0.06);&quot;&gt;: String&lt;br&gt;&lt;/span&gt;&lt;span style=&quot;margin: 0px; padding: 0px; border: 0px; font-family: &amp;quot;gg sans&amp;quot;, &amp;quot;Noto Sans&amp;quot;, &amp;quot;Helvetica Neue&amp;quot;, Helvetica, Arial, sans-serif; vertical-align: baseline; outline: 0px; background-color: rgba(2, 2, 2, 0.06);&quot;&gt;+compareTo&lt;/span&gt;&lt;span style=&quot;margin: 0px; padding: 0px; border: 0px; font-family: &amp;quot;gg sans&amp;quot;, &amp;quot;Noto Sans&amp;quot;, &amp;quot;Helvetica Neue&amp;quot;, Helvetica, Arial, sans-serif; vertical-align: baseline; outline: 0px; background-color: rgba(2, 2, 2, 0.06);&quot;&gt;(right &lt;/span&gt;&lt;span style=&quot;margin: 0px; padding: 0px; border: 0px; font-family: &amp;quot;gg sans&amp;quot;, &amp;quot;Noto Sans&amp;quot;, &amp;quot;Helvetica Neue&amp;quot;, Helvetica, Arial, sans-serif; vertical-align: baseline; outline: 0px; background-color: rgba(2, 2, 2, 0.06);&quot;&gt;: Reservation&lt;/span&gt;&lt;span style=&quot;margin: 0px; padding: 0px; border: 0px; font-family: &amp;quot;gg sans&amp;quot;, &amp;quot;Noto Sans&amp;quot;, &amp;quot;Helvetica Neue&amp;quot;, Helvetica, Arial, sans-serif; vertical-align: baseline; outline: 0px; background-color: rgba(2, 2, 2, 0.06);&quot;&gt;) &lt;/span&gt;&lt;span style=&quot;margin: 0px; padding: 0px; border: 0px; font-family: &amp;quot;gg sans&amp;quot;, &amp;quot;Noto Sans&amp;quot;, &amp;quot;Helvetica Neue&amp;quot;, Helvetica, Arial, sans-serif; vertical-align: baseline; outline: 0px; background-color: rgba(2, 2, 2, 0.06);&quot;&gt;: int&lt;/span&gt;&lt;span style=&quot;color: rgb(219, 222, 225); font-family: &amp;quot;gg sans&amp;quot;, &amp;quot;Noto Sans&amp;quot;, &amp;quot;Helvetica Neue&amp;quot;, Helvetica, Arial, sans-serif; font-size: 16px; background-color: rgba(2, 2, 2, 0.06);&quot;&gt; &lt;/span&gt;&lt;br style=&quot;border-color: var(--border-color);&quot;&gt;&lt;/font&gt;&lt;/p&gt;" style="text;strokeColor=none;fillColor=none;align=left;verticalAlign=top;spacingLeft=4;spacingRight=4;overflow=hidden;rotatable=0;points=[[0,0.5],[1,0.5]];portConstraint=eastwest;whiteSpace=wrap;html=1;" parent="8VrIXo1lg3qWOVsLEivH-21" vertex="1">
          <mxGeometry y="151.75" width="158" height="187.25" as="geometry" />
        </mxCell>
        <mxCell id="8VrIXo1lg3qWOVsLEivH-25" value="&lt;font style=&quot;font-size: 9px;&quot;&gt;Table&lt;/font&gt;" style="swimlane;fontStyle=1;align=center;verticalAlign=top;childLayout=stackLayout;horizontal=1;startSize=23;horizontalStack=0;resizeParent=1;resizeParentMax=0;resizeLast=0;collapsible=1;marginBottom=0;whiteSpace=wrap;html=1;" parent="kwfx18V8s8jriJGcK7w_-0" vertex="1">
          <mxGeometry x="426" y="811.0015814443858" width="178" height="279.00303110173957" as="geometry">
            <mxRectangle x="485" y="70" width="100" height="40" as="alternateBounds" />
          </mxGeometry>
        </mxCell>
        <mxCell id="8VrIXo1lg3qWOVsLEivH-26" value="&lt;p style=&quot;line-height: 91%; font-size: 13px;&quot;&gt;&lt;font style=&quot;font-size: 8px;&quot;&gt;&lt;font style=&quot;font-size: 8px;&quot;&gt;&lt;u style=&quot;&quot;&gt;-Tables:ArrayList&amp;lt;Table&amp;gt;&lt;br&gt;-idGenerator:int&lt;br&gt;&lt;/u&gt;-tableNum:int&lt;br&gt;-Revenue:double&lt;br&gt;-Categ:Category&lt;br&gt;-NoofSeats:int&lt;br&gt;-Cost:double&lt;br&gt;&lt;/font&gt;&lt;br&gt;&lt;/font&gt;&lt;/p&gt;" style="text;strokeColor=none;fillColor=none;align=left;verticalAlign=top;spacingLeft=4;spacingRight=4;overflow=hidden;rotatable=0;points=[[0,0.5],[1,0.5]];portConstraint=eastwest;whiteSpace=wrap;html=1;" parent="8VrIXo1lg3qWOVsLEivH-25" vertex="1">
          <mxGeometry y="23" width="178" height="115" as="geometry" />
        </mxCell>
        <mxCell id="8VrIXo1lg3qWOVsLEivH-27" value="" style="line;strokeWidth=1;fillColor=none;align=left;verticalAlign=middle;spacingTop=-1;spacingLeft=3;spacingRight=3;rotatable=0;labelPosition=right;points=[];portConstraint=eastwest;strokeColor=inherit;" parent="8VrIXo1lg3qWOVsLEivH-25" vertex="1">
          <mxGeometry y="138" width="178" height="8.253031101739587" as="geometry" />
        </mxCell>
        <mxCell id="8VrIXo1lg3qWOVsLEivH-28" value="&lt;p style=&quot;line-height: 120%; font-size: 8px;&quot;&gt;&lt;font style=&quot;font-size: 8px;&quot;&gt;+Table()&lt;br&gt;+Table(NoOfSeats:int)&lt;br&gt;+Table(NoOfSeats:int,data:Category)&lt;br&gt;&lt;u&gt;+getTable(tableNum:int):Table&lt;/u&gt;&lt;br&gt;&lt;u&gt;+mostReserved(StartDate :Date , EndDate :Date) : Table&lt;br&gt;+highestRevenue(StartDate :Date , EndDate :Date):Table&lt;/u&gt;&lt;br&gt;+isReserved(day:Date,start:LocalTime,end:LocalTime):boolean&lt;br&gt;+ReservationsInSpecificTime(StartDate:Date,EndDate:Date):int&lt;br&gt;+addToRevenue():void&lt;br&gt;&lt;u&gt;+saveRecord():void&lt;br&gt;+getRecord():void&lt;br&gt;&lt;/u&gt;+toString():String&lt;br&gt;&lt;/font&gt;&lt;/p&gt;" style="text;strokeColor=none;fillColor=none;align=left;verticalAlign=top;spacingLeft=4;spacingRight=4;overflow=hidden;rotatable=0;points=[[0,0.5],[1,0.5]];portConstraint=eastwest;whiteSpace=wrap;html=1;" parent="8VrIXo1lg3qWOVsLEivH-25" vertex="1">
          <mxGeometry y="146.2530311017396" width="178" height="132.75" as="geometry" />
        </mxCell>
        <mxCell id="8VrIXo1lg3qWOVsLEivH-47" value="&lt;font style=&quot;font-size: 10px;&quot;&gt;Menu&lt;/font&gt;" style="swimlane;fontStyle=1;align=center;verticalAlign=top;childLayout=stackLayout;horizontal=1;startSize=23;horizontalStack=0;resizeParent=1;resizeParentMax=0;resizeLast=0;collapsible=1;marginBottom=0;whiteSpace=wrap;html=1;" parent="kwfx18V8s8jriJGcK7w_-0" vertex="1">
          <mxGeometry x="971.5" y="860.3057986294148" width="185" height="132.0030311017396" as="geometry">
            <mxRectangle x="100" y="160" width="100" height="40" as="alternateBounds" />
          </mxGeometry>
        </mxCell>
        <mxCell id="8VrIXo1lg3qWOVsLEivH-49" value="" style="line;strokeWidth=1;fillColor=none;align=left;verticalAlign=middle;spacingTop=-1;spacingLeft=3;spacingRight=3;rotatable=0;labelPosition=right;points=[];portConstraint=eastwest;strokeColor=inherit;" parent="8VrIXo1lg3qWOVsLEivH-47" vertex="1">
          <mxGeometry y="23" width="185" height="1" as="geometry" />
        </mxCell>
        <mxCell id="8VrIXo1lg3qWOVsLEivH-48" value="&lt;p style=&quot;line-height: 110%; font-size: 8px;&quot;&gt;&lt;font style=&quot;font-size: 8px;&quot;&gt;&lt;font style=&quot;font-size: 8px;&quot;&gt;&lt;u style=&quot;&quot;&gt;-&amp;nbsp; Menues: ArrayList&amp;lt;Menu&amp;gt;&lt;br&gt;&lt;/u&gt;&lt;/font&gt;&lt;font style=&quot;font-size: 8px;&quot;&gt;-Categ :MenuCategory&lt;br&gt;- Menu_ID :int&lt;/font&gt;&lt;/font&gt;&lt;/p&gt;" style="text;strokeColor=none;fillColor=none;align=left;verticalAlign=top;spacingLeft=4;spacingRight=4;overflow=hidden;rotatable=0;points=[[0,0.5],[1,0.5]];portConstraint=eastwest;whiteSpace=wrap;html=1;" parent="8VrIXo1lg3qWOVsLEivH-47" vertex="1">
          <mxGeometry y="24" width="185" height="43" as="geometry" />
        </mxCell>
        <mxCell id="gJr9V7wq_dqS0wD7AWrC-0" value="" style="line;strokeWidth=1;fillColor=none;align=left;verticalAlign=middle;spacingTop=-1;spacingLeft=3;spacingRight=3;rotatable=0;labelPosition=right;points=[];portConstraint=eastwest;strokeColor=inherit;" parent="8VrIXo1lg3qWOVsLEivH-47" vertex="1">
          <mxGeometry y="67" width="185" height="8.253031101739587" as="geometry" />
        </mxCell>
        <mxCell id="8VrIXo1lg3qWOVsLEivH-50" value="&lt;p style=&quot;line-height: 110%; font-size: 8px;&quot;&gt;&lt;font style=&quot;font-size: 8px;&quot;&gt;+ Menu(data: MenuCategory)&lt;br&gt;+ Menu() &lt;br&gt;&lt;u&gt;+ ReadFromMenuFile(): void&lt;br&gt;&lt;/u&gt;&lt;u&gt;+ WriteInMenuFile(): void&lt;/u&gt;&lt;/font&gt;&lt;/p&gt;" style="text;strokeColor=none;fillColor=none;align=left;verticalAlign=top;spacingLeft=4;spacingRight=4;overflow=hidden;rotatable=0;points=[[0,0.5],[1,0.5]];portConstraint=eastwest;whiteSpace=wrap;html=1;" parent="8VrIXo1lg3qWOVsLEivH-47" vertex="1">
          <mxGeometry y="75.2530311017396" width="185" height="56.75" as="geometry" />
        </mxCell>
        <mxCell id="8VrIXo1lg3qWOVsLEivH-51" value="&lt;font style=&quot;font-size: 10px;&quot;&gt;Meal&lt;/font&gt;" style="swimlane;fontStyle=1;align=center;verticalAlign=top;childLayout=stackLayout;horizontal=1;startSize=22;horizontalStack=0;resizeParent=1;resizeParentMax=0;resizeLast=0;collapsible=1;marginBottom=0;whiteSpace=wrap;html=1;" parent="kwfx18V8s8jriJGcK7w_-0" vertex="1">
          <mxGeometry x="1266" y="881" width="145" height="210" as="geometry">
            <mxRectangle x="1050" y="1060" width="90" height="40" as="alternateBounds" />
          </mxGeometry>
        </mxCell>
        <mxCell id="8VrIXo1lg3qWOVsLEivH-52" value="&lt;p style=&quot;line-height: 110%; font-size: 8px;&quot;&gt;&lt;font style=&quot;font-size: 8px;&quot;&gt;&lt;u&gt;- Meals: ArrayList&amp;lt;Meal&amp;gt;&lt;br&gt;&lt;/u&gt;&lt;/font&gt;&lt;font style=&quot;font-size: 8px;&quot;&gt;- meal_ID: int &lt;br&gt;- Name: String  &lt;br&gt;-Price: double &lt;br&gt;- Menu_ID: int  &lt;br&gt;-noOfOrders : int&lt;/font&gt;&lt;/p&gt;" style="text;strokeColor=none;fillColor=none;align=left;verticalAlign=top;spacingLeft=4;spacingRight=4;overflow=hidden;rotatable=0;points=[[0,0.5],[1,0.5]];portConstraint=eastwest;whiteSpace=wrap;html=1;" parent="8VrIXo1lg3qWOVsLEivH-51" vertex="1">
          <mxGeometry y="22" width="145" height="68" as="geometry" />
        </mxCell>
        <mxCell id="8VrIXo1lg3qWOVsLEivH-53" value="" style="line;strokeWidth=1;fillColor=none;align=left;verticalAlign=middle;spacingTop=-1;spacingLeft=3;spacingRight=3;rotatable=0;labelPosition=right;points=[];portConstraint=eastwest;strokeColor=inherit;" parent="8VrIXo1lg3qWOVsLEivH-51" vertex="1">
          <mxGeometry y="90" width="145" height="1" as="geometry" />
        </mxCell>
        <mxCell id="8VrIXo1lg3qWOVsLEivH-54" value="&lt;p style=&quot;line-height: 110%; font-size: 8px;&quot;&gt;&lt;font style=&quot;font-size: 8px;&quot;&gt;+Meal(Menu_ID: int, meal_ID: int, Name: String , Price : double , noOfOrders : int)&lt;br&gt;+ incrementedOrders(): void &lt;br&gt;+ decrementOrders(): void &lt;br&gt; + getMealById(id: int): Meal &lt;br&gt;&lt;u&gt;+ ReadFromFile(): void&lt;br&gt;+ WriteInFile(): void&lt;/u&gt;&lt;br&gt;+ mostOrderedMeal(startDate: Date,endDate: Date): Meal&amp;nbsp; &lt;br&gt; + OrdersInSpecificTime(StartDate: Date, EndDate: Date): int&lt;/font&gt;&lt;/p&gt;" style="text;strokeColor=#000000;fillColor=none;align=left;verticalAlign=top;spacingLeft=4;spacingRight=4;overflow=hidden;rotatable=0;points=[[0,0.5],[1,0.5]];portConstraint=eastwest;whiteSpace=wrap;html=1;" parent="8VrIXo1lg3qWOVsLEivH-51" vertex="1">
          <mxGeometry y="91" width="145" height="119" as="geometry" />
        </mxCell>
        <mxCell id="8VrIXo1lg3qWOVsLEivH-70" value="&lt;font style=&quot;font-size: 5px;&quot;&gt;1..*&lt;/font&gt;" style="text;html=1;align=center;verticalAlign=middle;resizable=0;points=[];autosize=1;strokeColor=none;fillColor=none;" parent="kwfx18V8s8jriJGcK7w_-0" vertex="1">
          <mxGeometry x="1229" y="945.0037849235634" width="26" height="26" as="geometry" />
        </mxCell>
        <mxCell id="8VrIXo1lg3qWOVsLEivH-75" value="" style="endArrow=none;html=1;edgeStyle=orthogonalEdgeStyle;rounded=0;exitX=0.323;exitY=1.005;exitDx=0;exitDy=0;exitPerimeter=0;entryX=0.389;entryY=0;entryDx=0;entryDy=0;entryPerimeter=0;" parent="kwfx18V8s8jriJGcK7w_-0" source="bfFSSecnzDBPVZRViKrt-7" target="8VrIXo1lg3qWOVsLEivH-47" edge="1">
          <mxGeometry relative="1" as="geometry">
            <mxPoint x="1751.6799999999994" y="960.027938850817" as="sourcePoint" />
            <mxPoint x="1799" y="958.9963099630995" as="targetPoint" />
            <Array as="points">
              <mxPoint x="1225" y="825" />
              <mxPoint x="1225" y="825" />
              <mxPoint x="1225" y="831" />
            </Array>
          </mxGeometry>
        </mxCell>
        <mxCell id="8VrIXo1lg3qWOVsLEivH-76" value="&lt;font style=&quot;font-size: 5px;&quot;&gt;creator&lt;br&gt;1&lt;/font&gt;" style="edgeLabel;resizable=0;html=1;align=left;verticalAlign=bottom;" parent="8VrIXo1lg3qWOVsLEivH-75" connectable="0" vertex="1">
          <mxGeometry x="-1" relative="1" as="geometry">
            <mxPoint y="29" as="offset" />
          </mxGeometry>
        </mxCell>
        <mxCell id="8VrIXo1lg3qWOVsLEivH-77" value="&lt;font style=&quot;font-size: 5px;&quot;&gt;created by&lt;/font&gt;" style="edgeLabel;resizable=0;html=1;align=right;verticalAlign=bottom;" parent="8VrIXo1lg3qWOVsLEivH-75" connectable="0" vertex="1">
          <mxGeometry x="1" relative="1" as="geometry">
            <mxPoint x="28" y="-2" as="offset" />
          </mxGeometry>
        </mxCell>
        <mxCell id="8VrIXo1lg3qWOVsLEivH-79" value="&lt;font style=&quot;font-size: 5px;&quot;&gt;◄&lt;/font&gt;" style="text;html=1;align=center;verticalAlign=middle;resizable=0;points=[];autosize=1;strokeColor=none;fillColor=none;rotation=0;" parent="kwfx18V8s8jriJGcK7w_-0" vertex="1">
          <mxGeometry x="1000" y="550.9958882445967" width="23" height="26" as="geometry" />
        </mxCell>
        <mxCell id="8VrIXo1lg3qWOVsLEivH-89" value="" style="endArrow=none;html=1;edgeStyle=orthogonalEdgeStyle;rounded=0;exitX=-0.001;exitY=0.452;exitDx=0;exitDy=0;exitPerimeter=0;entryX=1;entryY=0.241;entryDx=0;entryDy=0;entryPerimeter=0;" parent="kwfx18V8s8jriJGcK7w_-0" target="8VrIXo1lg3qWOVsLEivH-16" edge="1" source="bfFSSecnzDBPVZRViKrt-7">
          <mxGeometry relative="1" as="geometry">
            <mxPoint x="1375" y="515.339148655772" as="sourcePoint" />
            <mxPoint x="1259" y="659.8239325250395" as="targetPoint" />
            <Array as="points">
              <mxPoint x="1127" y="572" />
              <mxPoint x="937" y="573" />
            </Array>
          </mxGeometry>
        </mxCell>
        <mxCell id="8VrIXo1lg3qWOVsLEivH-90" value="&lt;font style=&quot;font-size: 5px;&quot;&gt;1&lt;br&gt;manager&lt;/font&gt;" style="edgeLabel;resizable=0;html=1;align=left;verticalAlign=bottom;" parent="8VrIXo1lg3qWOVsLEivH-89" connectable="0" vertex="1">
          <mxGeometry x="-1" relative="1" as="geometry">
            <mxPoint x="-27" as="offset" />
          </mxGeometry>
        </mxCell>
        <mxCell id="8VrIXo1lg3qWOVsLEivH-91" value="&lt;font style=&quot;font-size: 5px;&quot;&gt;1..*&amp;nbsp; &amp;nbsp; &amp;nbsp; &amp;nbsp; &amp;nbsp; &amp;nbsp; &amp;nbsp;&amp;nbsp;&lt;br&gt;managed by&lt;/font&gt;" style="edgeLabel;resizable=0;html=1;align=right;verticalAlign=bottom;" parent="8VrIXo1lg3qWOVsLEivH-89" connectable="0" vertex="1">
          <mxGeometry x="1" relative="1" as="geometry">
            <mxPoint x="30" y="1" as="offset" />
          </mxGeometry>
        </mxCell>
        <mxCell id="8VrIXo1lg3qWOVsLEivH-92" value="&lt;font style=&quot;font-size: 5px;&quot;&gt;manage&lt;/font&gt;" style="text;html=1;align=center;verticalAlign=middle;resizable=0;points=[];autosize=1;strokeColor=none;fillColor=none;" parent="kwfx18V8s8jriJGcK7w_-0" vertex="1">
          <mxGeometry x="1015" y="550.9958882445967" width="36" height="26" as="geometry" />
        </mxCell>
        <mxCell id="8VrIXo1lg3qWOVsLEivH-96" value="&lt;font style=&quot;font-size: 5px;&quot;&gt;Chooses&lt;/font&gt;" style="text;html=1;align=center;verticalAlign=middle;resizable=0;points=[];autosize=1;strokeColor=none;fillColor=none;" parent="kwfx18V8s8jriJGcK7w_-0" vertex="1">
          <mxGeometry x="508" y="771.9930838165524" width="38" height="26" as="geometry" />
        </mxCell>
        <mxCell id="8VrIXo1lg3qWOVsLEivH-97" value="&lt;font style=&quot;font-size: 5px;&quot;&gt;1..*&lt;/font&gt;" style="text;html=1;align=center;verticalAlign=middle;resizable=0;points=[];autosize=1;strokeColor=none;fillColor=none;" parent="kwfx18V8s8jriJGcK7w_-0" vertex="1">
          <mxGeometry x="547.5" y="759.9955772272008" width="26" height="26" as="geometry" />
        </mxCell>
        <mxCell id="8VrIXo1lg3qWOVsLEivH-98" value="&lt;font style=&quot;font-size: 5px;&quot;&gt;1&lt;/font&gt;" style="text;html=1;align=center;verticalAlign=middle;resizable=0;points=[];autosize=1;strokeColor=none;fillColor=none;" parent="kwfx18V8s8jriJGcK7w_-0" vertex="1">
          <mxGeometry x="493" y="785.9947970479705" width="21" height="26" as="geometry" />
        </mxCell>
        <mxCell id="8VrIXo1lg3qWOVsLEivH-99" value="" style="endArrow=open;html=1;endSize=12;startArrow=diamondThin;startSize=14;startFill=0;edgeStyle=orthogonalEdgeStyle;align=left;verticalAlign=bottom;rounded=0;exitX=0.514;exitY=0.996;exitDx=0;exitDy=0;exitPerimeter=0;fontSize=1;spacing=1;entryX=0.383;entryY=0.006;entryDx=0;entryDy=0;entryPerimeter=0;" parent="kwfx18V8s8jriJGcK7w_-0" source="8VrIXo1lg3qWOVsLEivH-20" target="8VrIXo1lg3qWOVsLEivH-25" edge="1">
          <mxGeometry x="-1" y="28" relative="1" as="geometry">
            <mxPoint x="500.7795000000001" y="358.35835000000003" as="sourcePoint" />
            <mxPoint x="333" y="833.39" as="targetPoint" />
            <Array as="points">
              <mxPoint x="547" y="792" />
              <mxPoint x="495" y="792" />
              <mxPoint x="495" y="813" />
            </Array>
            <mxPoint x="-8" y="-20" as="offset" />
          </mxGeometry>
        </mxCell>
        <mxCell id="8VrIXo1lg3qWOVsLEivH-100" value="&lt;font style=&quot;font-size: 5px;&quot;&gt;◄&lt;/font&gt;" style="text;html=1;align=center;verticalAlign=middle;resizable=0;points=[];autosize=1;strokeColor=none;fillColor=none;rotation=0;" parent="kwfx18V8s8jriJGcK7w_-0" vertex="1">
          <mxGeometry x="499" y="771.9958882445967" width="23" height="26" as="geometry" />
        </mxCell>
        <mxCell id="8VrIXo1lg3qWOVsLEivH-101" value="&lt;font style=&quot;font-size: 5px;&quot;&gt;Chooser&lt;/font&gt;" style="text;html=1;align=center;verticalAlign=middle;resizable=0;points=[];autosize=1;strokeColor=none;fillColor=none;" parent="kwfx18V8s8jriJGcK7w_-0" vertex="1">
          <mxGeometry x="542" y="768.9955772272008" width="37" height="26" as="geometry" />
        </mxCell>
        <mxCell id="8VrIXo1lg3qWOVsLEivH-102" value="&lt;font style=&quot;font-size: 5px;&quot;&gt;Chosen By&lt;/font&gt;" style="text;html=1;align=center;verticalAlign=middle;resizable=0;points=[];autosize=1;strokeColor=none;fillColor=none;" parent="kwfx18V8s8jriJGcK7w_-0" vertex="1">
          <mxGeometry x="454" y="785.9947970479705" width="42" height="26" as="geometry" />
        </mxCell>
        <mxCell id="8VrIXo1lg3qWOVsLEivH-115" value="&lt;font style=&quot;font-size: 6px;&quot;&gt;Creation&lt;/font&gt;" style="text;html=1;align=center;verticalAlign=middle;resizable=0;points=[];autosize=1;strokeColor=none;fillColor=none;" parent="kwfx18V8s8jriJGcK7w_-0" vertex="1">
          <mxGeometry x="804" y="695.9963046916183" width="41" height="26" as="geometry" />
        </mxCell>
        <mxCell id="8VrIXo1lg3qWOVsLEivH-116" value="&lt;font style=&quot;font-size: 6px;&quot;&gt;1&lt;/font&gt;" style="text;html=1;align=center;verticalAlign=middle;resizable=0;points=[];autosize=1;strokeColor=none;fillColor=none;" parent="kwfx18V8s8jriJGcK7w_-0" vertex="1">
          <mxGeometry x="807.5" y="658.9963046916182" width="21" height="26" as="geometry" />
        </mxCell>
        <mxCell id="8VrIXo1lg3qWOVsLEivH-117" value="&lt;font style=&quot;font-size: 5px;&quot;&gt;1..*&lt;/font&gt;" style="text;html=1;align=center;verticalAlign=middle;resizable=0;points=[];autosize=1;strokeColor=none;fillColor=none;" parent="kwfx18V8s8jriJGcK7w_-0" vertex="1">
          <mxGeometry x="805" y="725.9960622034791" width="26" height="26" as="geometry" />
        </mxCell>
        <mxCell id="8VrIXo1lg3qWOVsLEivH-118" value="&lt;font style=&quot;font-size: 6px;&quot;&gt;◄&lt;/font&gt;" style="text;html=1;align=center;verticalAlign=middle;resizable=0;points=[];autosize=1;strokeColor=none;fillColor=none;rotation=270;" parent="kwfx18V8s8jriJGcK7w_-0" vertex="1">
          <mxGeometry x="807.5" y="708.9972535582499" width="24" height="26" as="geometry" />
        </mxCell>
        <mxCell id="8VrIXo1lg3qWOVsLEivH-119" value="" style="endArrow=none;html=1;edgeStyle=orthogonalEdgeStyle;rounded=0;entryX=1.002;entryY=0.802;entryDx=0;entryDy=0;entryPerimeter=0;exitX=-0.003;exitY=0.746;exitDx=0;exitDy=0;exitPerimeter=0;" parent="kwfx18V8s8jriJGcK7w_-0" edge="1" target="8VrIXo1lg3qWOVsLEivH-24" source="bfFSSecnzDBPVZRViKrt-7">
          <mxGeometry relative="1" as="geometry">
            <mxPoint x="1070" y="711" as="sourcePoint" />
            <mxPoint x="829" y="866" as="targetPoint" />
            <Array as="points">
              <mxPoint x="952" y="726" />
              <mxPoint x="952" y="1080" />
            </Array>
          </mxGeometry>
        </mxCell>
        <mxCell id="8VrIXo1lg3qWOVsLEivH-120" value="&lt;font style=&quot;font-size: 5px;&quot;&gt;Manager&lt;/font&gt;" style="edgeLabel;resizable=0;html=1;align=left;verticalAlign=bottom;" parent="8VrIXo1lg3qWOVsLEivH-119" connectable="0" vertex="1">
          <mxGeometry x="-1" relative="1" as="geometry">
            <mxPoint x="-23" y="15" as="offset" />
          </mxGeometry>
        </mxCell>
        <mxCell id="8VrIXo1lg3qWOVsLEivH-121" value="&lt;font style=&quot;font-size: 4px;&quot;&gt;Managed By&lt;/font&gt;" style="edgeLabel;resizable=0;html=1;align=right;verticalAlign=bottom;fontSize=4;" parent="8VrIXo1lg3qWOVsLEivH-119" connectable="0" vertex="1">
          <mxGeometry x="1" relative="1" as="geometry">
            <mxPoint x="25" y="1" as="offset" />
          </mxGeometry>
        </mxCell>
        <mxCell id="8VrIXo1lg3qWOVsLEivH-122" value="&lt;font style=&quot;font-size: 5px;&quot;&gt;Manages&lt;/font&gt;" style="text;html=1;align=center;verticalAlign=middle;resizable=0;points=[];autosize=1;strokeColor=none;fillColor=none;" parent="kwfx18V8s8jriJGcK7w_-0" vertex="1">
          <mxGeometry x="951" y="810.9977121771217" width="39" height="26" as="geometry" />
        </mxCell>
        <mxCell id="8VrIXo1lg3qWOVsLEivH-124" value="&lt;font style=&quot;font-size: 5px;&quot;&gt;◄&lt;/font&gt;" style="text;html=1;align=center;verticalAlign=middle;resizable=0;points=[];autosize=1;strokeColor=none;fillColor=none;rotation=270;" parent="kwfx18V8s8jriJGcK7w_-0" vertex="1">
          <mxGeometry x="957" y="822.9970321560359" width="23" height="26" as="geometry" />
        </mxCell>
        <mxCell id="8VrIXo1lg3qWOVsLEivH-125" value="&lt;font style=&quot;font-size: 5px;&quot;&gt;1..*&lt;/font&gt;" style="text;html=1;align=center;verticalAlign=middle;resizable=0;points=[];autosize=1;strokeColor=none;fillColor=none;" parent="kwfx18V8s8jriJGcK7w_-0" vertex="1">
          <mxGeometry x="1051" y="860.3016078017922" width="26" height="26" as="geometry" />
        </mxCell>
        <mxCell id="8VrIXo1lg3qWOVsLEivH-126" value="&lt;font style=&quot;font-size: 4px;&quot;&gt;0..*&lt;/font&gt;" style="text;html=1;align=center;verticalAlign=middle;resizable=0;points=[];autosize=1;strokeColor=none;fillColor=none;fontSize=4;" parent="kwfx18V8s8jriJGcK7w_-0" vertex="1">
          <mxGeometry x="833" y="1010.99602530311" width="24" height="17" as="geometry" />
        </mxCell>
        <mxCell id="96S_RW_blm-lSaF8RUR--3" value="&lt;font style=&quot;font-size: 5px;&quot;&gt;1&lt;/font&gt;" style="endArrow=open;html=1;endSize=12;startArrow=diamondThin;startSize=14;startFill=1;edgeStyle=orthogonalEdgeStyle;align=left;verticalAlign=bottom;rounded=0;exitX=0.491;exitY=1.004;exitDx=0;exitDy=0;exitPerimeter=0;entryX=-0.002;entryY=0.938;entryDx=0;entryDy=0;entryPerimeter=0;" parent="kwfx18V8s8jriJGcK7w_-0" source="8VrIXo1lg3qWOVsLEivH-50" target="8VrIXo1lg3qWOVsLEivH-52" edge="1">
          <mxGeometry x="-0.8093" y="7" relative="1" as="geometry">
            <mxPoint x="1707" y="1374.344791776489" as="sourcePoint" />
            <mxPoint x="1361" y="915" as="targetPoint" />
            <Array as="points">
              <mxPoint x="1062" y="1053" />
              <mxPoint x="1232" y="1053" />
              <mxPoint x="1232" y="966" />
              <mxPoint x="1262" y="966" />
            </Array>
            <mxPoint as="offset" />
          </mxGeometry>
        </mxCell>
        <mxCell id="GKtXlJeU_APXLLwpqhoX-29" style="edgeStyle=orthogonalEdgeStyle;rounded=0;orthogonalLoop=1;jettySize=auto;html=1;entryX=1.005;entryY=0.668;entryDx=0;entryDy=0;entryPerimeter=0;" edge="1" parent="kwfx18V8s8jriJGcK7w_-0" source="bfFSSecnzDBPVZRViKrt-4" target="8VrIXo1lg3qWOVsLEivH-30">
          <mxGeometry relative="1" as="geometry">
            <mxPoint x="1025" y="403" as="targetPoint" />
            <Array as="points">
              <mxPoint x="1280" y="356" />
              <mxPoint x="1047" y="356" />
              <mxPoint x="1047" y="400" />
              <mxPoint x="1016" y="400" />
            </Array>
          </mxGeometry>
        </mxCell>
        <mxCell id="bfFSSecnzDBPVZRViKrt-4" value="&lt;font style=&quot;font-size: 10px;&quot;&gt;Admin&lt;/font&gt;" style="swimlane;fontStyle=1;align=center;verticalAlign=top;childLayout=stackLayout;horizontal=1;startSize=20;horizontalStack=0;resizeParent=1;resizeParentMax=0;resizeLast=0;collapsible=1;marginBottom=0;whiteSpace=wrap;html=1;" parent="kwfx18V8s8jriJGcK7w_-0" vertex="1">
          <mxGeometry x="1126" y="387" width="307" height="436.00303110173957" as="geometry" />
        </mxCell>
        <mxCell id="bfFSSecnzDBPVZRViKrt-5" value="&lt;p style=&quot;line-height: 0%;&quot;&gt;&lt;u&gt;&lt;font style=&quot;font-size: 8px;&quot;&gt;-Admins:ArrayList&amp;lt;Admin&amp;gt;&lt;/font&gt;&lt;/u&gt;&lt;/p&gt;" style="text;strokeColor=none;fillColor=none;align=left;verticalAlign=top;spacingLeft=4;spacingRight=4;overflow=hidden;rotatable=0;points=[[0,0.5],[1,0.5]];portConstraint=eastwest;whiteSpace=wrap;html=1;" parent="bfFSSecnzDBPVZRViKrt-4" vertex="1">
          <mxGeometry y="20" width="307" height="27" as="geometry" />
        </mxCell>
        <mxCell id="bfFSSecnzDBPVZRViKrt-6" value="" style="line;strokeWidth=1;fillColor=none;align=left;verticalAlign=middle;spacingTop=-1;spacingLeft=3;spacingRight=3;rotatable=0;labelPosition=right;points=[];portConstraint=eastwest;strokeColor=inherit;" parent="bfFSSecnzDBPVZRViKrt-4" vertex="1">
          <mxGeometry y="47" width="307" height="8.25303110173959" as="geometry" />
        </mxCell>
        <mxCell id="bfFSSecnzDBPVZRViKrt-7" value="&lt;font style=&quot;font-size: 8px;&quot;&gt;&lt;font style=&quot;font-size: 8px;&quot;&gt;+Admin(&lt;/font&gt;&lt;font style=&quot;font-size: 8px;&quot;&gt; Name : String , Address : String ,DateOfBirth : String ,Phone : int , Email : String ,UserName : String,Passwrod : String&lt;/font&gt;&lt;font style=&quot;font-size: 8px;&quot;&gt;) &lt;/font&gt;&lt;br&gt;&lt;/font&gt;&lt;div style=&quot;line-height: 150%; font-size: 8px;&quot;&gt;&lt;font style=&quot;font-size: 8px;&quot;&gt;&lt;u&gt;+saveRecords():void&lt;/u&gt;&lt;/font&gt;&lt;/div&gt;&lt;div style=&quot;line-height: 150%; font-size: 8px;&quot;&gt;&lt;font style=&quot;font-size: 8px;&quot;&gt;&lt;u&gt;+getRecords():void&lt;br&gt;&lt;/u&gt;&lt;/font&gt;&lt;/div&gt;&lt;font style=&quot;font-size: 8px;&quot;&gt;&lt;u&gt;&lt;font style=&quot;font-size: 8px;&quot;&gt;+&lt;/font&gt;&lt;font style=&quot;font-size: 8px;&quot;&gt;addTable(numbOfSeats:int) : void&lt;br&gt;&lt;/font&gt;&lt;/u&gt;&lt;u&gt;&lt;font style=&quot;font-size: 8px;&quot;&gt;+&lt;/font&gt;&lt;font style=&quot;font-size: 8px;&quot;&gt;editTable(tableNum : int , tableCategory : Category, Cost : double,numOfSeats : int) : void&lt;br&gt;&lt;/font&gt;&lt;/u&gt;&lt;u&gt;&lt;font style=&quot;font-size: 8px;&quot;&gt;+&lt;/font&gt;&lt;font style=&quot;font-size: 8px;&quot;&gt;removeTable( tableNum : int) : void&lt;br&gt;&lt;/font&gt;&lt;/u&gt;&lt;u&gt;&lt;font style=&quot;font-size: 8px;&quot;&gt;+&lt;/font&gt;&lt;font style=&quot;font-size: 8px;&quot;&gt;searchTable(tableCategory : Category) : ArrayList&amp;lt;Table&amp;gt;&lt;br&gt;&lt;/font&gt;&lt;/u&gt;&lt;u&gt;&lt;font style=&quot;font-size: 8px;&quot;&gt;+&lt;/font&gt;&lt;font style=&quot;font-size: 8px;&quot;&gt;viewTableReports( tableNum : int, Start : Date, End : Date) : String&lt;br&gt;&lt;/font&gt;&lt;/u&gt;&lt;/font&gt;&lt;div style=&quot;line-height: 150%; font-size: 8px;&quot;&gt;&lt;u&gt;&lt;font style=&quot;font-size: 8px;&quot;&gt;&lt;font style=&quot;font-size: 8px;&quot;&gt;+&lt;/font&gt;&lt;font style=&quot;font-size: 8px;&quot;&gt;addMenu():void&lt;/font&gt;&lt;/font&gt;&lt;/u&gt;&lt;/div&gt;&lt;font style=&quot;font-size: 8px;&quot;&gt;&lt;u&gt;&lt;font style=&quot;font-size: 8px;&quot;&gt;+&lt;/font&gt;&lt;font style=&quot;font-size: 8px;&quot;&gt;addMenu(Choice : int):void&lt;/font&gt;&lt;br&gt;&lt;/u&gt;&lt;u&gt;&lt;font style=&quot;font-size: 8px;&quot;&gt;+&lt;/font&gt;&lt;font style=&quot;font-size: 8px;&quot;&gt;editMenu(menuId : int,Category : MenuCategory) : void&lt;br&gt;&lt;/font&gt;&lt;font style=&quot;font-size: 8px;&quot;&gt;+&lt;/font&gt;&lt;font style=&quot;font-size: 8px;&quot;&gt;removeMenu(menuId : int) : void&lt;br&gt;&lt;/font&gt;&lt;/u&gt;&lt;/font&gt;&lt;div style=&quot;line-height: 150%; font-size: 8px;&quot;&gt;&lt;u&gt;&lt;font style=&quot;font-size: 8px;&quot;&gt;&lt;font style=&quot;font-size: 8px;&quot;&gt;+&lt;/font&gt;&lt;font style=&quot;font-size: 8px;&quot;&gt;searchMenu(menuId : int,&lt;/font&gt;&lt;font style=&quot;font-size: 8px;&quot;&gt;Start : Date, End : Date&lt;/font&gt;&lt;font style=&quot;font-size: 8px;&quot;&gt;) : String&lt;/font&gt;&lt;/font&gt;&lt;/u&gt;&lt;/div&gt;&lt;div style=&quot;line-height: 150%; font-size: 8px;&quot;&gt;&lt;u&gt;&lt;font style=&quot;font-size: 8px;&quot;&gt;&lt;font style=&quot;font-size: 8px;&quot;&gt;+&lt;/font&gt;&lt;font style=&quot;font-size: 8px;&quot;&gt;searchMenu(menuId : int&lt;/font&gt;&lt;font style=&quot;font-size: 8px;&quot;&gt;) :ArrayList&amp;lt;Meal&amp;gt;&lt;/font&gt;&lt;/font&gt;&lt;/u&gt;&lt;/div&gt;&lt;div style=&quot;line-height: 150%; font-size: 8px;&quot;&gt;&lt;u&gt;&lt;font style=&quot;font-size: 8px;&quot;&gt;&lt;font style=&quot;font-size: 8px;&quot;&gt;+&lt;/font&gt;&lt;font style=&quot;font-size: 8px;&quot;&gt;createMeal(Menu_id : int, Mealid : int,Name : String, price : double ):void&lt;br&gt;&lt;/font&gt;&lt;/font&gt;&lt;/u&gt;&lt;/div&gt;&lt;div style=&quot;line-height: 150%; font-size: 8px;&quot;&gt;&lt;u&gt;&lt;font style=&quot;font-size: 8px;&quot;&gt;&lt;font style=&quot;font-size: 8px;&quot;&gt;+&lt;/font&gt;&lt;font style=&quot;font-size: 8px;&quot;&gt;viewMenuReportsCateg(menuId : int):void&lt;/font&gt;&lt;/font&gt;&lt;/u&gt;&lt;/div&gt;&lt;div style=&quot;line-height: 150%; font-size: 8px;&quot;&gt;&lt;u&gt;&lt;font style=&quot;font-size: 8px;&quot;&gt;&lt;font style=&quot;font-size: 8px;&quot;&gt;+&lt;/font&gt;&lt;font style=&quot;font-size: 8px;&quot;&gt;viewMenuREportsMostOrderedMeal&lt;/font&gt;&lt;font style=&quot;font-size: 8px;&quot;&gt;(menuId : int,&lt;/font&gt;&lt;font style=&quot;font-size: 8px;&quot;&gt;Start : Date, End : Date&lt;/font&gt;&lt;font style=&quot;font-size: 8px;&quot;&gt;) &lt;/font&gt;&lt;font style=&quot;font-size: 8px;&quot;&gt;:Meal&lt;br&gt;&lt;/font&gt;&lt;/font&gt;&lt;/u&gt;&lt;/div&gt;&lt;font style=&quot;font-size: 8px;&quot;&gt;&lt;u&gt;&lt;font style=&quot;font-size: 8px;&quot;&gt;+&lt;/font&gt;&lt;font style=&quot;font-size: 8px;&quot;&gt;addUser(&lt;/font&gt;&lt;font style=&quot;font-size: 8px;&quot;&gt;Name : String , Address : String ,DateOfBirth : String ,Phone : int , Email : String ,UserName : String,Passwrod :String&lt;/font&gt;&lt;font style=&quot;font-size: 8px;&quot;&gt;):void&lt;br&gt;&lt;/font&gt;&lt;/u&gt;&lt;u&gt;&lt;font style=&quot;font-size: 8px;&quot;&gt;+&lt;/font&gt;&lt;font style=&quot;font-size: 8px;&quot;&gt;editCategory(UserId : int,Categorys : String) : void&lt;br&gt;&lt;/font&gt;&lt;/u&gt;&lt;u&gt;&lt;font style=&quot;font-size: 8px;&quot;&gt;+&lt;/font&gt;&lt;font style=&quot;font-size: 8px;&quot;&gt;remove(UserId : int) : void&lt;br&gt;&lt;/font&gt;&lt;/u&gt;&lt;/font&gt;&lt;div style=&quot;line-height: 150%; font-size: 8px;&quot;&gt;&lt;u&gt;&lt;font style=&quot;font-size: 8px;&quot;&gt;&lt;font style=&quot;font-size: 8px;&quot;&gt;+&lt;/font&gt;&lt;font style=&quot;font-size: 8px;&quot;&gt;viewUsers(UserId : int):void&lt;/font&gt;&lt;/font&gt;&lt;/u&gt;&lt;/div&gt;&lt;u style=&quot;font-size: 8px;&quot;&gt;&lt;font style=&quot;font-size: 8px;&quot;&gt;&lt;font style=&quot;font-size: 8px;&quot;&gt;+&lt;/font&gt;&lt;font style=&quot;font-size: 8px;&quot;&gt;viewUsers():void&lt;/font&gt;&lt;br&gt;&lt;/font&gt;&lt;/u&gt;&lt;div style=&quot;line-height: 150%; font-size: 8px;&quot;&gt;&lt;font style=&quot;font-size: 8px;&quot;&gt;&lt;u&gt;&lt;font style=&quot;font-size: 8px;&quot;&gt;+&lt;/font&gt;&lt;font style=&quot;font-size: 8px;&quot;&gt;viewReservationsOfGuests(GuestId : int):String&lt;/font&gt;&lt;/u&gt;&lt;br&gt;&lt;/font&gt;&lt;/div&gt;&lt;div style=&quot;line-height: 150%; font-size: 8px;&quot;&gt;&lt;font style=&quot;font-size: 8px;&quot;&gt;&lt;u&gt;&lt;font style=&quot;font-size: 8px;&quot;&gt;+&lt;/font&gt;&lt;font style=&quot;font-size: 8px;&quot;&gt;viewReservationsdetails(GuestId : int,ReservationNumber : int):String&lt;/font&gt;&lt;/u&gt;&lt;br&gt;&lt;/font&gt;&lt;/div&gt;&lt;div style=&quot;line-height: 150%; font-size: 8px;&quot;&gt;&lt;u style=&quot;&quot;&gt;&lt;font style=&quot;font-size: 8px;&quot;&gt;&lt;font style=&quot;font-size: 8px;&quot;&gt;+&lt;/font&gt;&lt;font style=&quot;font-size: 8px;&quot;&gt;search(UserName : String ): Admin&lt;/font&gt;&lt;/font&gt;&lt;/u&gt;&lt;br&gt;&lt;/div&gt;" style="text;strokeColor=none;fillColor=none;align=left;verticalAlign=top;spacingLeft=4;spacingRight=4;overflow=hidden;rotatable=0;points=[[0,0.5],[1,0.5]];portConstraint=eastwest;whiteSpace=wrap;html=1;" parent="bfFSSecnzDBPVZRViKrt-4" vertex="1">
          <mxGeometry y="55.25303110173959" width="307" height="380.75" as="geometry" />
        </mxCell>
        <mxCell id="ohuu_YEVWN6w3OgKk6NW-68" value="&lt;font style=&quot;font-size: 8px;&quot;&gt;&lt;font style=&quot;font-size: 8px;&quot;&gt;&amp;lt;&amp;lt;enumeration&amp;gt;&amp;gt;&lt;br&gt;&lt;/font&gt;&lt;font style=&quot;font-size: 8px;&quot;&gt;&lt;b&gt;MenuCategory&lt;/b&gt;&lt;/font&gt;&lt;/font&gt;" style="swimlane;fontStyle=0;childLayout=stackLayout;horizontal=1;startSize=33;fillColor=none;horizontalStack=0;resizeParent=1;resizeParentMax=0;resizeLast=0;collapsible=1;marginBottom=0;whiteSpace=wrap;html=1;" parent="kwfx18V8s8jriJGcK7w_-0" vertex="1">
          <mxGeometry x="1426" y="829.31" width="98" height="89" as="geometry">
            <mxRectangle x="1850" y="630" width="130" height="50" as="alternateBounds" />
          </mxGeometry>
        </mxCell>
        <mxCell id="ohuu_YEVWN6w3OgKk6NW-69" value="&lt;div style=&quot;font-size: 8px;&quot;&gt;&lt;font style=&quot;font-size: 8px;&quot;&gt;Breakfast&lt;/font&gt;&lt;/div&gt;&lt;div style=&quot;font-size: 8px;&quot;&gt;&lt;font style=&quot;font-size: 8px;&quot;&gt;Lunch&lt;/font&gt;&lt;/div&gt;&lt;div style=&quot;font-size: 8px;&quot;&gt;&lt;font style=&quot;font-size: 8px;&quot;&gt;Dinner&lt;/font&gt;&lt;/div&gt;&lt;div style=&quot;font-size: 8px;&quot;&gt;&lt;font style=&quot;font-size: 8px;&quot;&gt;Beverages&lt;/font&gt;&lt;/div&gt;&lt;div style=&quot;font-size: 8px;&quot;&gt;&lt;font style=&quot;font-size: 8px;&quot;&gt;Dessert&lt;/font&gt;&lt;br&gt;&lt;/div&gt;" style="text;strokeColor=none;fillColor=none;align=left;verticalAlign=top;spacingLeft=4;spacingRight=4;overflow=hidden;rotatable=0;points=[[0,0.5],[1,0.5]];portConstraint=eastwest;whiteSpace=wrap;html=1;" parent="ohuu_YEVWN6w3OgKk6NW-68" vertex="1">
          <mxGeometry y="33" width="98" height="56" as="geometry" />
        </mxCell>
        <mxCell id="ohuu_YEVWN6w3OgKk6NW-70" value="" style="endArrow=none;html=1;rounded=0;exitX=1;exitY=0.5;exitDx=0;exitDy=0;entryX=0;entryY=0.5;entryDx=0;entryDy=0;" parent="kwfx18V8s8jriJGcK7w_-0" source="8VrIXo1lg3qWOVsLEivH-48" edge="1" target="ohuu_YEVWN6w3OgKk6NW-68">
          <mxGeometry width="50" height="50" relative="1" as="geometry">
            <mxPoint x="2010" y="1342.364296257248" as="sourcePoint" />
            <mxPoint x="2052" y="1294.9093674222456" as="targetPoint" />
            <Array as="points">
              <mxPoint x="1240" y="876" />
            </Array>
          </mxGeometry>
        </mxCell>
        <mxCell id="8VrIXo1lg3qWOVsLEivH-37" value="&lt;p style=&quot;line-height: 50%;&quot;&gt;&lt;font style=&quot;font-size: 6px;&quot;&gt;&lt;font style=&quot;font-size: 6px;&quot;&gt;&amp;lt;&amp;lt;enumeration&amp;gt;&amp;gt;&lt;br style=&quot;&quot;&gt;&lt;/font&gt;&lt;font style=&quot;font-size: 6px;&quot;&gt;&lt;b style=&quot;&quot;&gt;Category&lt;/b&gt;&lt;/font&gt;&lt;/font&gt;&lt;/p&gt;" style="swimlane;fontStyle=0;childLayout=stackLayout;horizontal=1;startSize=25;fillColor=none;horizontalStack=0;resizeParent=1;resizeParentMax=0;resizeLast=0;collapsible=1;marginBottom=0;whiteSpace=wrap;html=1;fontSize=12;" parent="kwfx18V8s8jriJGcK7w_-0" vertex="1">
          <mxGeometry x="617" y="939" width="68" height="77" as="geometry">
            <mxRectangle x="1850" y="630" width="130" height="50" as="alternateBounds" />
          </mxGeometry>
        </mxCell>
        <mxCell id="8VrIXo1lg3qWOVsLEivH-38" value="&lt;p style=&quot;line-height: 50%;&quot;&gt;&lt;font style=&quot;font-size: 6px;&quot;&gt;Standard&lt;br&gt;Couples&lt;br&gt;Family&lt;br&gt;Private&lt;/font&gt;&lt;/p&gt;" style="text;strokeColor=none;fillColor=none;align=left;verticalAlign=top;spacingLeft=4;spacingRight=4;overflow=hidden;rotatable=0;points=[[0,0.5],[1,0.5]];portConstraint=eastwest;whiteSpace=wrap;html=1;" parent="8VrIXo1lg3qWOVsLEivH-37" vertex="1">
          <mxGeometry y="25" width="68" height="52" as="geometry" />
        </mxCell>
        <mxCell id="GKtXlJeU_APXLLwpqhoX-6" value="" style="endArrow=none;html=1;rounded=0;exitX=0;exitY=0.25;exitDx=0;exitDy=0;entryX=1;entryY=-0.002;entryDx=0;entryDy=0;entryPerimeter=0;" edge="1" parent="kwfx18V8s8jriJGcK7w_-0" source="8VrIXo1lg3qWOVsLEivH-37" target="8VrIXo1lg3qWOVsLEivH-28">
          <mxGeometry width="50" height="50" relative="1" as="geometry">
            <mxPoint x="-14" y="2000.38692672641" as="sourcePoint" />
            <mxPoint x="431" y="1831.1997891407484" as="targetPoint" />
          </mxGeometry>
        </mxCell>
        <mxCell id="8VrIXo1lg3qWOVsLEivH-78" value="&lt;font style=&quot;font-size: 5px;&quot;&gt;creates&lt;/font&gt;" style="text;html=1;align=center;verticalAlign=middle;resizable=0;points=[];autosize=1;strokeColor=none;fillColor=none;" parent="kwfx18V8s8jriJGcK7w_-0" vertex="1">
          <mxGeometry x="1071" y="834.0013231418029" width="34" height="26" as="geometry" />
        </mxCell>
        <mxCell id="GKtXlJeU_APXLLwpqhoX-27" value="" style="endArrow=none;html=1;rounded=0;exitX=0.485;exitY=-0.001;exitDx=0;exitDy=0;exitPerimeter=0;entryX=0.462;entryY=0.993;entryDx=0;entryDy=0;entryPerimeter=0;" edge="1" parent="kwfx18V8s8jriJGcK7w_-0" source="8VrIXo1lg3qWOVsLEivH-21" target="8VrIXo1lg3qWOVsLEivH-16">
          <mxGeometry width="50" height="50" relative="1" as="geometry">
            <mxPoint x="812" y="743" as="sourcePoint" />
            <mxPoint x="812" y="620" as="targetPoint" />
          </mxGeometry>
        </mxCell>
        <mxCell id="8VrIXo1lg3qWOVsLEivH-29" value="&lt;font size=&quot;1&quot; style=&quot;&quot;&gt;&lt;i style=&quot;&quot;&gt;Person&lt;/i&gt;&lt;/font&gt;" style="swimlane;fontStyle=1;align=center;verticalAlign=top;childLayout=stackLayout;horizontal=1;startSize=23;horizontalStack=0;resizeParent=1;resizeParentMax=0;resizeLast=0;collapsible=1;marginBottom=0;whiteSpace=wrap;html=1;" parent="kwfx18V8s8jriJGcK7w_-0" vertex="1">
          <mxGeometry x="722" y="316" width="292" height="197" as="geometry">
            <mxRectangle x="940" y="68" width="120" height="40" as="alternateBounds" />
          </mxGeometry>
        </mxCell>
        <mxCell id="8VrIXo1lg3qWOVsLEivH-30" value="&lt;font style=&quot;font-size: 8px;&quot;&gt;-Name : String&lt;br&gt;-Address : String&lt;br&gt;-DateOfBirth : String&lt;br&gt;-Phone : int&lt;br&gt;&lt;/font&gt;&lt;div style=&quot;line-height: 110%; font-size: 8px;&quot;&gt;&lt;font style=&quot;font-size: 8px;&quot;&gt;-Email : String&lt;/font&gt;&lt;/div&gt;&lt;div style=&quot;line-height: 110%; font-size: 8px;&quot;&gt;&lt;font style=&quot;font-size: 8px;&quot;&gt;-userName: String&lt;/font&gt;&lt;/div&gt;&lt;div style=&quot;line-height: 110%; font-size: 8px;&quot;&gt;&lt;font style=&quot;font-size: 8px;&quot;&gt;-Password:String&lt;/font&gt;&lt;/div&gt;&lt;div style=&quot;line-height: 110%; font-size: 8px;&quot;&gt;&lt;font style=&quot;font-size: 8px;&quot;&gt;&lt;u&gt;-IdGenerator:int&lt;/u&gt;&lt;/font&gt;&lt;/div&gt;&lt;div style=&quot;line-height: 110%; font-size: 8px;&quot;&gt;&lt;font style=&quot;font-size: 8px;&quot;&gt;-Id:int&lt;/font&gt;&lt;/div&gt;" style="text;strokeColor=none;fillColor=none;align=left;verticalAlign=top;spacingLeft=4;spacingRight=4;overflow=hidden;rotatable=0;points=[[0,0.5],[1,0.5]];portConstraint=eastwest;whiteSpace=wrap;html=1;" parent="8VrIXo1lg3qWOVsLEivH-29" vertex="1">
          <mxGeometry y="23" width="292" height="108" as="geometry" />
        </mxCell>
        <mxCell id="8VrIXo1lg3qWOVsLEivH-31" value="" style="line;strokeWidth=1;fillColor=none;align=left;verticalAlign=middle;spacingTop=-1;spacingLeft=3;spacingRight=3;rotatable=0;labelPosition=right;points=[];portConstraint=eastwest;strokeColor=inherit;" parent="8VrIXo1lg3qWOVsLEivH-29" vertex="1">
          <mxGeometry y="131" width="292" height="8" as="geometry" />
        </mxCell>
        <mxCell id="bfFSSecnzDBPVZRViKrt-0" value="" style="line;strokeWidth=1;fillColor=none;align=left;verticalAlign=middle;spacingTop=-1;spacingLeft=3;spacingRight=3;rotatable=0;labelPosition=right;points=[];portConstraint=eastwest;strokeColor=inherit;" parent="8VrIXo1lg3qWOVsLEivH-29" vertex="1">
          <mxGeometry y="139" width="292" as="geometry" />
        </mxCell>
        <mxCell id="8VrIXo1lg3qWOVsLEivH-32" value="&lt;font style=&quot;font-size: 8px;&quot;&gt;&lt;font style=&quot;font-size: 8px;&quot;&gt;Person( Name : String , Address : String ,DateOfBirth : String ,Phone : int , Email : String ,UserName : String,Passwrod : String)&lt;/font&gt;&lt;br&gt;&lt;/font&gt;&lt;div style=&quot;font-size: 8px;&quot;&gt;&lt;font style=&quot;font-size: 8px;&quot;&gt;&lt;font style=&quot;font-size: 8px;&quot;&gt;+&lt;/font&gt;&lt;font style=&quot;font-size: 8px;&quot;&gt;checkPassword(password : String):boolean&lt;/font&gt;&lt;/font&gt;&lt;/div&gt;&lt;div style=&quot;font-size: 8px;&quot;&gt;&lt;font style=&quot;font-size: 8px;&quot;&gt;&lt;font style=&quot;font-size: 8px;&quot;&gt;+&lt;/font&gt;&lt;font style=&quot;font-size: 8px;&quot;&gt;encreptPassword(pass : String):String&lt;/font&gt;&lt;/font&gt;&lt;/div&gt;&lt;font style=&quot;font-size: 8px;&quot;&gt;&lt;br&gt;&lt;/font&gt;" style="text;strokeColor=none;fillColor=none;align=left;verticalAlign=top;spacingLeft=4;spacingRight=4;overflow=hidden;rotatable=0;points=[[0,0.5],[1,0.5]];portConstraint=eastwest;whiteSpace=wrap;html=1;" parent="8VrIXo1lg3qWOVsLEivH-29" vertex="1">
          <mxGeometry y="139" width="292" height="58" as="geometry" />
        </mxCell>
        <mxCell id="8VrIXo1lg3qWOVsLEivH-56" style="edgeStyle=orthogonalEdgeStyle;rounded=0;orthogonalLoop=1;jettySize=auto;html=1;entryX=0.609;entryY=0.998;entryDx=0;entryDy=0;entryPerimeter=0;exitX=0.5;exitY=0;exitDx=0;exitDy=0;" parent="kwfx18V8s8jriJGcK7w_-0" source="8VrIXo1lg3qWOVsLEivH-13" target="8VrIXo1lg3qWOVsLEivH-32" edge="1">
          <mxGeometry relative="1" as="geometry">
            <mxPoint x="881" y="241" as="sourcePoint" />
            <Array as="points">
              <mxPoint x="820" y="526" />
              <mxPoint x="900" y="526" />
            </Array>
          </mxGeometry>
        </mxCell>
      </root>
    </mxGraphModel>
  </diagram>
</mxfile>
